# Derived from Kenney Car Kit 3.1 (CC0)
mtllib vehicle.mtl
v -0.35 0.5598077 0.51 1 1 1
v -0.5 0.5598077 0.51 1 1 1
v -0.35 0.512132 0.4478679 1 1 1
v -0.5 0.512132 0.4478679 1 1 1
v -0.6 0.3 0.405 1 1 1
v -0.5 0.3 0.36 1 1 1
v -0.6 0.3659989 0.4136889 1 1 1
v -0.5 0.3776457 0.3702222 1 1 1
v -0.5 0.08786798 0.872132 1 1 1
v -0.6 0.1196878 0.8403122 1 1 1
v -0.5 0.15 0.9198076 1 1 1
v -0.6 0.1725 0.8808364 1 1 1
v -0.6 0.4275 0.4391635 1 1 1
v -0.5 0.45 0.4001924 1 1 1
v -0.6 0.4803122 0.4796878 1 1 1
v -0.35 0.08786798 0.872132 1 1 1
v -0.35 0.15 0.9198076 1 1 1
v -0.35 0.2223543 0.9497777 1 1 1
v -0.5 0.2223543 0.9497777 1 1 1
v -0.35 0.3 0.96 1 1 1
v -0.5 0.3 0.96 1 1 1
v -0.6 0.5208365 0.5325 1 1 1
v -0.5 0.0401924 0.51 1 1 1
v -0.5 0.08786798 0.4478679 1 1 1
v -0.6 0.07916354 0.5325 1 1 1
v -0.6 0.1196878 0.4796878 1 1 1
v -0.5 0.0401924 0.8099999 1 1 1
v -0.6 0.07916354 0.7875 1 1 1
v -0.5 0.5598077 0.8099999 1 1 1
v -0.6 0.5208365 0.7875 1 1 1
v -0.5 0.5897778 0.7376457 1 1 1
v -0.6 0.5463111 0.7259988 1 1 1
v -0.5 0.512132 0.872132 1 1 1
v -0.6 0.4803122 0.8403122 1 1 1
v -0.6 0.2340012 0.906311 1 1 1
v -0.35 0.3776457 0.9497777 1 1 1
v -0.5 0.3776457 0.9497777 1 1 1
v -0.35 0.45 0.9198076 1 1 1
v -0.5 0.45 0.9198076 1 1 1
v -0.5 0.5897778 0.5823542 1 1 1
v -0.6 0.5463111 0.5940011 1 1 1
v -0.35 0.08786798 0.4478679 1 1 1
v -0.5 0.15 0.4001924 1 1 1
v -0.35 0.15 0.4001924 1 1 1
v -0.35 0.512132 0.872132 1 1 1
v -0.35 0.01022226 0.7376457 1 1 1
v -0.35 0 0.66 1 1 1
v -0.5 0.01022226 0.7376457 1 1 1
v -0.5 0 0.66 1 1 1
v -0.35 0.6 0.66 1 1 1
v -0.5 0.6 0.66 1 1 1
v -0.35 0.5897778 0.5823542 1 1 1
v -0.5 0.2223543 0.3702222 1 1 1
v -0.35 0.2223543 0.3702222 1 1 1
v -0.6 0.3 0.915 1 1 1
v -0.35 0.0401924 0.51 1 1 1
v -0.35 0.01022226 0.5823542 1 1 1
v -0.5 0.01022226 0.5823542 1 1 1
v -0.6 0.4275 0.8808364 1 1 1
v -0.35 0.0401924 0.8099999 1 1 1
v -0.6 0.555 0.66 1 1 1
v -0.6 0.3659989 0.906311 1 1 1
v -0.35 0.45 0.4001924 1 1 1
v -0.35 0.5598077 0.8099999 1 1 1
v -0.35 0.3 0.36 1 1 1
v -0.35 0.3776457 0.3702222 1 1 1
v -0.6 0.05368893 0.5940011 1 1 1
v -0.6 0.1725 0.4391635 1 1 1
v -0.25 0.5463111 0.5940011 1 1 1
v -0.25 0.5208365 0.5325 1 1 1
v -0.6 0.05368893 0.7259988 1 1 1
v -0.6 0.2340012 0.4136889 1 1 1
v -0.6 0.04500002 0.66 1 1 1
v -0.35 0.5897778 0.7376457 1 1 1
v -0.25 0.4803122 0.8403122 1 1 1
v -0.25 0.5208365 0.7875 1 1 1
v -0.25 0.07916354 0.7875 1 1 1
v -0.25 0.05368893 0.7259988 1 1 1
v -0.25 0.5463111 0.7259988 1 1 1
v -0.25 0.555 0.66 1 1 1
v -0.25 0.3659989 0.4136889 1 1 1
v -0.25 0.4275 0.4391635 1 1 1
v -0.25 0.3 0.915 1 1 1
v -0.25 0.3659989 0.906311 1 1 1
v -0.25 0.1725 0.8808364 1 1 1
v -0.25 0.2340012 0.906311 1 1 1
v -0.25 0.4275 0.8808364 1 1 1
v -0.25 0.1196878 0.8403122 1 1 1
v -0.25 0.04500002 0.66 1 1 1
v -0.25 0.4803122 0.4796878 1 1 1
v -0.25 0.1196878 0.4796878 1 1 1
v -0.25 0.1725 0.4391635 1 1 1
v -0.25 0.2340012 0.4136889 1 1 1
v -0.25 0.3 0.405 1 1 1
v -0.25 0.05368893 0.5940011 1 1 1
v -0.25 0.07916354 0.5325 1 1 1
v -0.6 0.3 0.4786318 1 1 1
v -0.6 0.2530585 0.4848117 1 1 1
v -0.6 0.3469416 0.4848117 1 1 1
v -0.6 0.2093159 0.5029305 1 1 1
v -0.6 0.1717533 0.5317533 1 1 1
v -0.6 0.1429305 0.5693159 1 1 1
v -0.6 0.1248118 0.6130584 1 1 1
v -0.6 0.1186318 0.66 1 1 1
v -0.6 0.3906841 0.5029305 1 1 1
v -0.6 0.4282467 0.5317533 1 1 1
v -0.6 0.4570695 0.5693159 1 1 1
v -0.6 0.4751883 0.6130584 1 1 1
v -0.6 0.1248118 0.7069415 1 1 1
v -0.6 0.1429305 0.7506841 1 1 1
v -0.6 0.1717533 0.7882466 1 1 1
v -0.6 0.4813682 0.66 1 1 1
v -0.6 0.4751883 0.7069415 1 1 1
v -0.6 0.4570695 0.7506841 1 1 1
v -0.6 0.4282467 0.7882466 1 1 1
v -0.6 0.2093159 0.8170694 1 1 1
v -0.6 0.2530585 0.8351882 1 1 1
v -0.6 0.3906841 0.8170694 1 1 1
v -0.6 0.3469416 0.8351882 1 1 1
v -0.6 0.3 0.8413682 1 1 1
v -0.6 0.3 0.8413682 1 1 1
v -0.6 0.2530585 0.8351882 1 1 1
v -0.6 0.3469416 0.8351882 1 1 1
v -0.6 0.3906841 0.8170694 1 1 1
v -0.6 0.2093159 0.8170694 1 1 1
v -0.6 0.4282467 0.7882466 1 1 1
v -0.6 0.1717533 0.7882466 1 1 1
v -0.6 0.3 0.7804779 1 1 1
v -0.6 0.331182 0.7763727 1 1 1
v -0.6 0.268818 0.7763727 1 1 1
v -0.6 0.4570695 0.7506841 1 1 1
v -0.6 0.360239 0.7643369 1 1 1
v -0.6 0.3851908 0.7451907 1 1 1
v -0.6 0.1429305 0.7506841 1 1 1
v -0.6 0.239761 0.7643369 1 1 1
v -0.6 0.2148092 0.7451907 1 1 1
v -0.6 0.4751882 0.7069415 1 1 1
v -0.6 0.404337 0.7202389 1 1 1
v -0.6 0.4163728 0.691182 1 1 1
v -0.6 0.4813682 0.66 1 1 1
v -0.6 0.420478 0.66 1 1 1
v -0.6 0.1248118 0.7069415 1 1 1
v -0.6 0.195663 0.7202389 1 1 1
v -0.6 0.1836272 0.691182 1 1 1
v -0.6 0.4751882 0.6130584 1 1 1
v -0.6 0.4163728 0.628818 1 1 1
v -0.6 0.404337 0.599761 1 1 1
v -0.6 0.1186318 0.66 1 1 1
v -0.6 0.179522 0.66 1 1 1
v -0.6 0.1836272 0.628818 1 1 1
v -0.6 0.1248118 0.6130584 1 1 1
v -0.6 0.195663 0.599761 1 1 1
v -0.6 0.4570695 0.5693159 1 1 1
v -0.6 0.3851908 0.5748092 1 1 1
v -0.6 0.360239 0.555663 1 1 1
v -0.6 0.1429305 0.5693159 1 1 1
v -0.6 0.2148092 0.5748092 1 1 1
v -0.6 0.239761 0.555663 1 1 1
v -0.6 0.4282467 0.5317533 1 1 1
v -0.6 0.1717533 0.5317533 1 1 1
v -0.6 0.331182 0.5436272 1 1 1
v -0.6 0.268818 0.5436272 1 1 1
v -0.6 0.3 0.539522 1 1 1
v -0.6 0.3906841 0.5029305 1 1 1
v -0.6 0.2093159 0.5029305 1 1 1
v -0.6 0.3469416 0.4848117 1 1 1
v -0.6 0.2530585 0.4848117 1 1 1
v -0.6 0.3 0.4786318 1 1 1
v -0.5500001 0.3872796 0.6833864 1 1 1
v -0.5500001 0.3903585 0.66 1 1 1
v -0.6000001 0.4163728 0.691182 1 1 1
v -0.6000001 0.420478 0.66 1 1 1
v -0.5500001 0.2127204 0.6833864 1 1 1
v -0.5500001 0.2217473 0.7051792 1 1 1
v -0.6000001 0.1836272 0.691182 1 1 1
v -0.6000001 0.195663 0.7202389 1 1 1
v -0.5500001 0.2361069 0.5961069 1 1 1
v -0.5500001 0.2217473 0.6148207 1 1 1
v -0.6000001 0.2148092 0.5748092 1 1 1
v -0.6000001 0.195663 0.599761 1 1 1
v -0.6000001 0.268818 0.7763727 1 1 1
v -0.5500001 0.2766135 0.7472795 1 1 1
v -0.6000001 0.3 0.7804779 1 1 1
v -0.5500001 0.3 0.7503585 1 1 1
v -0.5500001 0.2096415 0.66 1 1 1
v -0.6000001 0.179522 0.66 1 1 1
v -0.5500001 0.3233865 0.5727204 1 1 1
v -0.6000001 0.331182 0.5436272 1 1 1
v -0.5500001 0.3451793 0.5817472 1 1 1
v -0.6000001 0.360239 0.555663 1 1 1
v -0.5500001 0.3233865 0.7472795 1 1 1
v -0.6000001 0.331182 0.7763727 1 1 1
v -0.5500001 0.2361069 0.723893 1 1 1
v -0.6000001 0.2148092 0.7451907 1 1 1
v -0.5500001 0.3 0.5696415 1 1 1
v -0.6000001 0.3 0.539522 1 1 1
v -0.5500001 0.2127204 0.6366135 1 1 1
v -0.6000001 0.1836272 0.628818 1 1 1
v -0.6000001 0.239761 0.555663 1 1 1
v -0.6000001 0.268818 0.5436272 1 1 1
v -0.5500001 0.2548208 0.5817472 1 1 1
v -0.5500001 0.2766135 0.5727204 1 1 1
v -0.5500001 0.3638931 0.723893 1 1 1
v -0.5500001 0.3782527 0.7051792 1 1 1
v -0.6000001 0.3851908 0.7451907 1 1 1
v -0.6000001 0.404337 0.7202389 1 1 1
v -0.5500001 0.3638931 0.5961069 1 1 1
v -0.6000001 0.3851908 0.5748092 1 1 1
v -0.6000001 0.239761 0.7643369 1 1 1
v -0.5500001 0.2548208 0.7382527 1 1 1
v -0.5500001 0.3782527 0.6148207 1 1 1
v -0.5500001 0.3872796 0.6366135 1 1 1
v -0.5500001 0.3451793 0.7382527 1 1 1
v -0.6000001 0.4163728 0.628818 1 1 1
v -0.6000001 0.404337 0.599761 1 1 1
v -0.6000001 0.360239 0.7643369 1 1 1
vn 0.2063628 0.8473846 -0.4892377
vn -0.2063628 0.8473846 -0.4892377
vn 0.2063629 0.6918867 -0.6918867
vn -0.2063629 0.6918867 -0.6918867
vn -0.4103647 0 -0.9119215
vn -0.2063629 0 -0.9784756
vn -0.4103647 0.2360227 -0.8808486
vn -0.2063628 0.2532481 -0.9451348
vn -0.2063629 -0.6918867 0.6918867
vn -0.4103647 -0.6448259 0.6448259
vn -0.2063628 -0.4892377 0.8473846
vn -0.4103647 -0.4559608 0.7897472
vn -0.4103647 0.4559608 -0.7897472
vn -0.2063628 0.4892377 -0.8473846
vn -0.4103647 0.6448259 -0.6448259
vn 0.2063629 -0.6918867 0.6918867
vn 0.2063628 -0.4892377 0.8473846
vn 0.2063628 -0.2532481 0.9451348
vn -0.2063628 -0.2532481 0.9451348
vn 0.2063629 0 0.9784756
vn -0.2063629 0 0.9784756
vn -0.4103647 0.7897472 -0.4559608
vn -0.2063628 -0.8473846 -0.4892377
vn -0.2063629 -0.6918867 -0.6918867
vn -0.4103647 -0.7897472 -0.4559608
vn -0.4103647 -0.6448259 -0.6448259
vn -0.2063628 -0.8473846 0.4892377
vn -0.4103647 -0.7897472 0.4559608
vn -0.2063628 0.8473846 0.4892377
vn -0.4103647 0.7897472 0.4559608
vn -0.2063628 0.9451348 0.2532481
vn -0.4103647 0.8808486 0.2360227
vn -0.2063629 0.6918867 0.6918867
vn -0.4103647 0.6448259 0.6448259
vn -0.4103647 -0.2360227 0.8808486
vn 0.2063628 0.2532481 0.9451348
vn -0.2063628 0.2532481 0.9451348
vn 0.2063628 0.4892377 0.8473846
vn -0.2063628 0.4892377 0.8473846
vn -0.2063628 0.9451348 -0.2532481
vn -0.4103647 0.8808486 -0.2360227
vn 0.2063629 -0.6918867 -0.6918867
vn -0.2063628 -0.4892377 -0.8473846
vn 0.2063628 -0.4892377 -0.8473846
vn 0.2063629 0.6918867 0.6918867
vn 0.2063628 -0.9451348 0.2532481
vn 0.2063629 -0.9784756 0
vn -0.2063628 -0.9451348 0.2532481
vn -0.2063629 -0.9784756 0
vn 0.2063629 0.9784756 0
vn -0.2063629 0.9784756 0
vn 0.2063628 0.9451348 -0.2532481
vn -0.2063628 -0.2532481 -0.9451348
vn 0.2063628 -0.2532481 -0.9451348
vn -0.4103647 0 0.9119215
vn 0.2063628 -0.8473846 -0.4892377
vn 0.2063628 -0.9451348 -0.2532481
vn -0.2063628 -0.9451348 -0.2532481
vn -0.4103647 0.4559608 0.7897472
vn 0.2063628 -0.8473846 0.4892377
vn -0.4103647 0.9119215 0
vn -0.4103647 0.2360227 0.8808486
vn 0.2063628 0.4892377 -0.8473846
vn 0.2063628 0.8473846 0.4892377
vn 0.2063629 0 -0.9784756
vn 0.2063628 0.2532481 -0.9451348
vn -0.4103647 -0.8808486 -0.2360227
vn -0.4103647 -0.4559608 -0.7897472
vn 0.4103647 0.8808486 -0.2360227
vn 0.4103647 0.7897472 -0.4559608
vn -0.4103647 -0.8808486 0.2360227
vn -0.4103647 -0.2360227 -0.8808486
vn -0.4103647 -0.9119215 0
vn 0.2063628 0.9451348 0.2532481
vn 0.4103647 0.6448259 0.6448259
vn 0.4103647 0.7897472 0.4559608
vn 0.4103647 -0.7897472 0.4559608
vn 0.4103647 -0.8808486 0.2360227
vn 0.4103647 0.8808486 0.2360227
vn 0.4103647 0.9119215 0
vn 0.4103647 0.2360227 -0.8808486
vn 0.4103647 0.4559608 -0.7897472
vn 0.4103647 0 0.9119215
vn 0.4103647 0.2360227 0.8808486
vn 0.4103647 -0.4559608 0.7897472
vn 0.4103647 -0.2360227 0.8808486
vn 0.4103647 0.4559608 0.7897472
vn 0.4103647 -0.6448259 0.6448259
vn 0.4103647 -0.9119215 0
vn 0.4103647 0.6448259 -0.6448259
vn 0.4103647 -0.6448259 -0.6448259
vn 0.4103647 -0.4559608 -0.7897472
vn 0.4103647 -0.2360227 -0.8808486
vn 0.4103647 0 -0.9119215
vn 0.4103647 -0.8808486 -0.2360227
vn 0.4103647 -0.7897472 -0.4559608
vn 1 0 0
vn -1 0 0
vn -1 0 -6.661338E-16
vn -0.5160002 -0.8274009 -0.2217014
vn -0.5160002 -0.8565885 0
vn -0.5160002 0.8274009 -0.2217014
vn -0.5160002 0.7418273 -0.4282942
vn -0.5160002 0.6056995 0.6056995
vn -0.5160002 0.7418273 0.4282942
vn -0.5160002 0.2217014 -0.8274009
vn -0.5160002 0 -0.8565885
vn -0.5160002 0.8565885 0
vn -0.5160002 -0.2217014 0.8274009
vn -0.5160002 -0.4282942 0.7418273
vn -0.5160002 -0.2217014 -0.8274009
vn -0.5160002 0.6056995 -0.6056995
vn -0.5160002 0 0.8565885
vn -0.5160002 0.8274009 0.2217014
vn -0.5160002 0.4282942 0.7418273
vn -0.5160002 0.2217014 0.8274009
vn -0.5160002 -0.6056995 -0.6056995
vn -0.5160002 -0.7418273 -0.4282942
vn -0.5160002 -0.6056995 0.6056995
vn -0.5160002 0.4282942 -0.7418273
vn -0.5160002 -0.8274009 0.2217014
vn -0.5160002 -0.7418273 0.4282942
vn -0.5160002 -0.4282942 -0.7418273
vt 0.34375 0.4482051
vt 0.34375 0.4164214
vt 0.34375 0.275
vt 0.34375 0.3189992
vt 0.34375 0.3267638
vt 0.34375 0.36
vt 0.34375 0.375
vt 0.34375 0.3952081
vt 0.34375 0.4222243
vt 0.34375 0.4681852
vt 0.34375 0.4392074
vt 0.34375 0.475
vt 0.34375 0.445
vt 0.34375 0.3062944
vt 0.34375 0.3354561
vt 0.34375 0.3604978
vt 0.34375 0.379713
vt 0.34375 0.3917921
vt 0.34375 0.3959121
vt 0.71875 0.375
vt 0.71875 0.3491181
vt 0.71875 0.4008819
vt 0.71875 0.425
vt 0.71875 0.325
vt 0.71875 0.4457107
vt 0.71875 0.3042893
vt 0.71875 0.3921927
vt 0.71875 0.3578073
vt 0.71875 0.4616025
vt 0.71875 0.4082136
vt 0.71875 0.4219712
vt 0.71875 0.2883975
vt 0.71875 0.3417864
vt 0.71875 0.3280288
vt 0.71875 0.4715925
vt 0.71875 0.4325277
vt 0.71875 0.4391638
vt 0.71875 0.475
vt 0.71875 0.4414273
vt 0.71875 0.2784074
vt 0.71875 0.3174723
vt 0.71875 0.3108362
vt 0.71875 0.275
vt 0.71875 0.3085727
vt 0.71875 0.3439778
vt 0.71875 0.345
vt 0.71875 0.353637
vt 0.71875 0.355
vt 0.71875 0.2860222
vt 0.71875 0.2890192
vt 0.71875 0.276363
vt 0.71875 0.280359
vt 0.71875 0.2937868
vt 0.71875 0.2867157
vt 0.71875 0.3046472
vt 0.71875 0.3072354
vt 0.71875 0.315
vt 0.71875 0.285
vt 0.71875 0.3227646
vt 0.71875 0.3253528
vt 0.71875 0.33
vt 0.71875 0.335
vt 0.71875 0.295
vt 0.71875 0.3
vt 0.71875 0.3362132
vt 0.71875 0.3409808
vt 0.71875 0.3432843
vt 0.71875 0.349641
g body
v -0.65 0.4 -1.036835 1 1 1
v -0.5166667 0.4 -1.036835 1 1 1
v -0.65 0.4009394 -1.036711 1 1 1
v -0.5169798 0.4009394 -1.036711 1 1 1
v -0.65 0.2 -1.15 1 1 1
v -0.65 0.4 -1.15 1 1 1
v -0.65 0.2 -0.96 1 1 1
v -0.65 0.495 -0.9977499 1 1 1
v -0.65 0.3 -0.96 1 1 1
v -0.65 0.5757716 -0.9357716 1 1 1
v -0.65 0.3776457 -0.9497777 1 1 1
v -0.65 0.45 -0.9198076 1 1 1
v -0.65 0.6377499 -0.855 1 1 1
v -0.65 0.512132 -0.872132 1 1 1
v -0.65 0.5598077 -0.8099999 1 1 1
v -0.65 0.6767111 -0.7609394 1 1 1
v -0.65 0.5897778 -0.7376457 1 1 1
v -0.65 0.6899999 -0.66 1 1 1
v -0.65 0.6 -0.66 1 1 1
v -0.65 0.5897778 -0.5823542 1 1 1
v -0.65 0.6767111 -0.5590605 1 1 1
v -0.65 0.5598077 -0.51 1 1 1
v -0.65 0.6377499 -0.465 1 1 1
v -0.65 0.512132 -0.447868 1 1 1
v -0.65 0.5757716 -0.3842284 1 1 1
v -0.65 0.45 -0.4001924 1 1 1
v -0.65 0.3776457 -0.3702222 1 1 1
v -0.65 0.495 -0.3222501 1 1 1
v -0.65 0.3 -0.36 1 1 1
v -0.65 0.2 -0.36 1 1 1
v -0.65 0.3 -0.27 1 1 1
v -0.65 0.4009394 -0.2832889 1 1 1
v -0.65 0.2 0.36 1 1 1
v -0.65 0.3 0.27 1 1 1
v -0.65 0.4009394 0.2832889 1 1 1
v -0.65 0.495 0.3222501 1 1 1
v -0.65 0.3 0.36 1 1 1
v -0.65 0.5757716 0.3842283 1 1 1
v -0.65 0.3776457 0.3702222 1 1 1
v -0.65 0.45 0.4001924 1 1 1
v -0.65 0.6377499 0.465 1 1 1
v -0.65 0.512132 0.447868 1 1 1
v -0.65 0.5598077 0.51 1 1 1
v -0.65 0.6767111 0.5590606 1 1 1
v -0.65 0.5897778 0.5823543 1 1 1
v -0.65 0.6899999 0.66 1 1 1
v -0.65 0.6 0.66 1 1 1
v -0.65 0.5897778 0.7376457 1 1 1
v -0.65 0.6767111 0.7609394 1 1 1
v -0.65 0.5598077 0.81 1 1 1
v -0.65 0.6377499 0.855 1 1 1
v -0.65 0.512132 0.8721321 1 1 1
v -0.65 0.5757716 0.9357717 1 1 1
v -0.65 0.45 0.9198077 1 1 1
v -0.65 0.3776457 0.9497777 1 1 1
v -0.65 0.495 0.9977499 1 1 1
v -0.65 0.3 0.96 1 1 1
v -0.65 0.2 0.96 1 1 1
v -0.65 0.2 1.1 1 1 1
v -0.65 0.4 1.036835 1 1 1
v -0.65 0.4009394 1.036711 1 1 1
v -0.65 0.4 1.1 1 1 1
v 0.65 0.4009394 1.036711 1 1 1
v 0.65 0.495 0.9977499 1 1 1
v 0.65 0.4 1.036835 1 1 1
v 0.65 0.2 1.1 1 1 1
v 0.65 0.4 1.1 1 1 1
v 0.65 0.2 0.96 1 1 1
v 0.65 0.3 0.96 1 1 1
v 0.65 0.3776457 0.9497777 1 1 1
v 0.65 0.5757716 0.9357717 1 1 1
v 0.65 0.45 0.9198077 1 1 1
v 0.65 0.512132 0.8721321 1 1 1
v 0.65 0.6377499 0.855 1 1 1
v 0.65 0.5598077 0.81 1 1 1
v 0.65 0.6767111 0.7609394 1 1 1
v 0.65 0.5897778 0.7376457 1 1 1
v 0.65 0.6 0.66 1 1 1
v 0.65 0.6899999 0.66 1 1 1
v 0.65 0.5897778 0.5823543 1 1 1
v 0.65 0.6767111 0.5590606 1 1 1
v 0.65 0.5598077 0.51 1 1 1
v 0.65 0.6377499 0.465 1 1 1
v 0.65 0.512132 0.447868 1 1 1
v 0.65 0.45 0.4001924 1 1 1
v 0.65 0.5757716 0.3842283 1 1 1
v 0.65 0.3776457 0.3702222 1 1 1
v 0.65 0.3 0.36 1 1 1
v 0.65 0.495 0.3222501 1 1 1
v 0.65 0.2 0.36 1 1 1
v 0.65 0.4009394 0.2832889 1 1 1
v 0.65 0.3 0.27 1 1 1
v 0.65 0.3 -0.27 1 1 1
v 0.65 0.2 -0.36 1 1 1
v 0.65 0.495 -0.3222501 1 1 1
v 0.65 0.4009394 -0.2832889 1 1 1
v 0.65 0.3 -0.36 1 1 1
v 0.65 0.3776457 -0.3702222 1 1 1
v 0.65 0.5757716 -0.3842284 1 1 1
v 0.65 0.45 -0.4001924 1 1 1
v 0.65 0.512132 -0.447868 1 1 1
v 0.65 0.6377499 -0.465 1 1 1
v 0.65 0.5598077 -0.51 1 1 1
v 0.65 0.6767111 -0.5590605 1 1 1
v 0.65 0.5897778 -0.5823542 1 1 1
v 0.65 0.6 -0.66 1 1 1
v 0.65 0.6899999 -0.66 1 1 1
v 0.65 0.5897778 -0.7376457 1 1 1
v 0.65 0.6767111 -0.7609394 1 1 1
v 0.65 0.5598077 -0.8099999 1 1 1
v 0.65 0.6377499 -0.855 1 1 1
v 0.65 0.512132 -0.872132 1 1 1
v 0.65 0.45 -0.9198076 1 1 1
v 0.65 0.5757716 -0.9357716 1 1 1
v 0.65 0.3776457 -0.9497777 1 1 1
v 0.65 0.3 -0.96 1 1 1
v 0.65 0.495 -0.9977499 1 1 1
v 0.65 0.2 -0.96 1 1 1
v 0.65 0.4009394 -1.036711 1 1 1
v 0.65 0.4 -1.036835 1 1 1
v 0.65 0.2 -1.15 1 1 1
v 0.65 0.4 -1.15 1 1 1
v 0.55 0.5 0.9939133 1 1 1
v 0.5483333 0.495 0.9977499 1 1 1
v 0.55 0.5 1.15 1 1 1
v 0.5169798 0.4009394 1.036711 1 1 1
v 0.5166667 0.4 1.036835 1 1 1
v 0.5166667 0.4 1.116667 1 1 1
v 0.55 0.5 -1.25 1 1 1
v 0.5166667 0.4 -1.183333 1 1 1
v 0.55 0.5 -1.15 1 1 1
v 0.5166667 0.4 -1.036835 1 1 1
v 0.5169798 0.4009394 -1.036711 1 1 1
v 0.5483333 0.495 -0.9977499 1 1 1
v 0.55 0.5 -0.9939132 1 1 1
v -0.55 0.6377499 0.855 1 1 1
v -0.55 0.5757716 0.9357717 1 1 1
v -0.55 0.6767111 -0.5590605 1 1 1
v -0.55 0.6377499 -0.465 1 1 1
v 0.55 0.6377499 0.465 1 1 1
v 0.55 0.6767111 0.5590606 1 1 1
v 0.55 0.6767111 -0.5590605 1 1 1
v 0.55 0.6377499 -0.465 1 1 1
v 0.55 0.5757716 -0.9357716 1 1 1
v 0.55 0.6377499 -0.855 1 1 1
v 0.5169798 0.4009394 0.2832889 1 1 1
v 0.5483333 0.495 0.3222501 1 1 1
v 0.5483333 0.495 -0.3222501 1 1 1
v 0.55 0.5 -0.3260867 1 1 1
v 0.55 0.5757716 -0.3842284 1 1 1
v -0.55 0.5757716 -0.3842284 1 1 1
v 0.55 0.5757716 0.3842283 1 1 1
v 0.55 0.6899999 0.66 1 1 1
v 0.55 0.6767111 0.7609394 1 1 1
v 0.55 0.6377499 0.855 1 1 1
v 0.55 0.5757716 0.9357717 1 1 1
v -0.55 0.6899999 -0.66 1 1 1
v 0.55 0.6899999 -0.66 1 1 1
v -0.5169798 0.4009394 0.2832889 1 1 1
v -0.5483333 0.495 0.3222501 1 1 1
v 0.55 0.6767111 -0.7609394 1 1 1
v -0.55 0.5 -1.25 1 1 1
v -0.55 0.5 -1.15 1 1 1
v -0.5166667 0.4 -1.183333 1 1 1
v -0.5483333 0.495 -0.9977499 1 1 1
v -0.55 0.5 -0.9939132 1 1 1
v -0.5169798 0.4009394 -0.2832889 1 1 1
v -0.5483333 0.495 -0.3222501 1 1 1
v -0.55 0.5 -0.3260867 1 1 1
v -0.55 0.5 0.3260867 1 1 1
v -0.4833333 0.3 -0.27 1 1 1
v -0.4833333 0.3 0.27 1 1 1
v 0.55 0.5 0.3260867 1 1 1
v 0.5169798 0.4009394 -0.2832889 1 1 1
v 0.4833333 0.3 -0.27 1 1 1
v 0.4833333 0.3 0.27 1 1 1
v -0.5169798 0.4009394 1.036711 1 1 1
v -0.5483333 0.495 0.9977499 1 1 1
v -0.55 0.5757716 0.3842283 1 1 1
v -0.55 0.6377499 0.465 1 1 1
v -0.55 0.6767111 -0.7609394 1 1 1
v -0.55 0.5757716 -0.9357716 1 1 1
v -0.55 0.6767111 0.5590606 1 1 1
v -0.55 0.6899999 0.66 1 1 1
v -0.55 0.6767111 0.7609394 1 1 1
v -0.55 0.5 0.9939133 1 1 1
v -0.55 0.6377499 -0.855 1 1 1
v -0.5166667 0.4 1.116667 1 1 1
v -0.55 0.5 1.15 1 1 1
v -0.5166667 0.4 1.036835 1 1 1
v -0.55 0.4 1.2 1 1 1
v -0.6207107 0.4 1.170711 1 1 1
v 0.55 0.4 1.2 1 1 1
v 0.6207107 0.4 1.170711 1 1 1
v -0.55 0.2 1.2 1 1 1
v -0.6207107 0.2 1.170711 1 1 1
v 0.55 0.2 1.2 1 1 1
v 0.6207107 0.2 1.170711 1 1 1
v 0.55 0.2 -1.25 1 1 1
v 0.6207107 0.2 -1.220711 1 1 1
v 0.55 0.4 -1.25 1 1 1
v 0.6207107 0.4 -1.220711 1 1 1
v -0.55 0.2 -1.25 1 1 1
v -0.55 0.4 -1.25 1 1 1
v -0.6207107 0.2 -1.220711 1 1 1
v -0.6207107 0.4 -1.220711 1 1 1
v 0.4 0.2 -0.36 1 1 1
v 0.4 0.2 0.36 1 1 1
v 0.4 0.2 -0.96 1 1 1
v -0.4 0.2 -0.96 1 1 1
v -0.4 0.2 -0.36 1 1 1
v -0.4 0.2 0.96 1 1 1
v -0.4 0.2 0.36 1 1 1
v 0.4 0.2 0.96 1 1 1
v -0.125 0.15 -1.3 1 1 1
v -0.175 0.2 -1.3 1 1 1
v -0.125 0.15 -1.25 1 1 1
v -0.175 0.2 -1.25 1 1 1
v 0.125 0.15 -1.3 1 1 1
v 0.125 0.15 -1.25 1 1 1
v 0.175 0.2 -1.3 1 1 1
v 0.175 0.2 -1.25 1 1 1
v -0.125 0.325 -1.3 1 1 1
v -0.125 0.325 -1.25 1 1 1
v -0.175 0.275 -1.3 1 1 1
v -0.175 0.275 -1.25 1 1 1
v 0.175 0.275 -1.25 1 1 1
v 0.125 0.325 -1.25 1 1 1
v 0.125 0.325 -1.3 1 1 1
v 0.175 0.275 -1.3 1 1 1
v 0.125 0.15 1.25 1 1 1
v 0.175 0.2 1.25 1 1 1
v 0.125 0.15 1.2 1 1 1
v 0.175 0.2 1.2 1 1 1
v -0.125 0.15 1.25 1 1 1
v -0.125 0.15 1.2 1 1 1
v -0.175 0.2 1.25 1 1 1
v -0.175 0.2 1.2 1 1 1
v 0.125 0.325 1.25 1 1 1
v 0.125 0.325 1.2 1 1 1
v 0.175 0.275 1.25 1 1 1
v 0.175 0.275 1.2 1 1 1
v -0.175 0.275 1.2 1 1 1
v -0.125 0.325 1.2 1 1 1
v -0.125 0.325 1.25 1 1 1
v -0.175 0.275 1.25 1 1 1
v 0.4 0.45 -0.4001924 1 1 1
v 0.4 0.512132 -0.447868 1 1 1
v 0.4 0.5598077 -0.51 1 1 1
v 0.4 0.5897778 -0.5823542 1 1 1
v 0.4 0.3776457 -0.9497777 1 1 1
v 0.4 0.45 -0.9198076 1 1 1
v 0.4 0.5598077 0.81 1 1 1
v 0.4 0.5897778 0.7376457 1 1 1
v 0.4 0.45 0.9198077 1 1 1
v 0.4 0.512132 0.8721321 1 1 1
v -0.4 0.3 -0.36 1 1 1
v 0.4 0.6 -0.66 1 1 1
v 0.4 0.5897778 -0.7376457 1 1 1
v 0.4 0.3 0.36 1 1 1
v 0.4 0.3 -0.96 1 1 1
v 0.4 0.5598077 0.51 1 1 1
v 0.4 0.512132 0.447868 1 1 1
v 0.4 0.5598077 -0.8099999 1 1 1
v 0.4 0.512132 -0.872132 1 1 1
v 0.4 0.6 0.66 1 1 1
v 0.4 0.5897778 0.5823543 1 1 1
v 0.4 0.3776457 0.3702222 1 1 1
v 0.4 0.3776457 -0.3702222 1 1 1
v 0.4 0.3 -0.36 1 1 1
v 0.4 0.45 0.4001924 1 1 1
v 0.4 0.3 0.96 1 1 1
v 0.4 0.3776457 0.9497777 1 1 1
v -0.4 0.3 0.96 1 1 1
v -0.4 0.3776457 0.9497777 1 1 1
v -0.4 0.3 0.36 1 1 1
v -0.4 0.6 0.66 1 1 1
v -0.4 0.5897778 0.5823543 1 1 1
v -0.4 0.5598077 0.51 1 1 1
v -0.4 0.45 0.9198077 1 1 1
v -0.4 0.512132 0.8721321 1 1 1
v -0.4 0.3776457 0.3702222 1 1 1
v -0.4 0.45 0.4001924 1 1 1
v -0.4 0.512132 0.447868 1 1 1
v -0.4 0.5598077 0.81 1 1 1
v -0.4 0.5897778 0.7376457 1 1 1
v -0.4 0.3 -0.96 1 1 1
v -0.4 0.3776457 -0.9497777 1 1 1
v -0.4 0.45 -0.9198076 1 1 1
v -0.4 0.512132 -0.872132 1 1 1
v -0.4 0.5598077 -0.8099999 1 1 1
v -0.4 0.5897778 -0.7376457 1 1 1
v -0.4 0.6 -0.66 1 1 1
v -0.4 0.5897778 -0.5823542 1 1 1
v -0.4 0.5598077 -0.51 1 1 1
v -0.4 0.512132 -0.447868 1 1 1
v -0.4 0.45 -0.4001924 1 1 1
v -0.4 0.3776457 -0.3702222 1 1 1
v 0.75 0.7 0.4229022 1 1 1
v 0.55 0.7 0.4229022 1 1 1
v 0.75 0.8 0.4229022 1 1 1
v 0.55 0.8 0.4229022 1 1 1
v 0.75 0.8 0.3229022 1 1 1
v 0.55 0.8 0.3229022 1 1 1
v -0.55 0.6 1.15 1 1 1
v -0.55 0.6 1.05 1 1 1
v -0.55 0.7166667 1.05 1 1 1
v -0.55 0.8 0.55 1 1 1
v -0.55 0.8 0.4229022 1 1 1
v -0.55 0.7 0.4229022 1 1 1
v -0.55 0.7 0.3229022 1 1 1
v -0.55 0.8 -0.1402287 1 1 1
v -0.55 0.8 0.3229022 1 1 1
v -0.55 0.8 -0.7499999 1 1 1
v -0.55 0.7 -1.25 1 1 1
v -0.55 0.6 -1.25 1 1 1
v 0.75 0.7 0.3229022 1 1 1
v 0.55 0.7 0.3229022 1 1 1
v 0.55 0.7 -1.25 1 1 1
v 0.55 0.8 -0.7499999 1 1 1
v 0.275 0.7 -1.25 1 1 1
v -0.275 0.7 -1.25 1 1 1
v 0.55 0.8 0.55 1 1 1
v 0.4487878 0.8 0.55 1 1 1
v 0.45 1.3 0.15 1 1 1
v 0.3644052 1.221913 0.2124695 1 1 1
v -0.3644052 1.221913 0.2124695 1 1 1
v -0.45 1.3 0.15 1 1 1
v -0.4487878 0.8 0.55 1 1 1
v -0.75 0.7 0.4229022 1 1 1
v -0.75 0.7 0.3229022 1 1 1
v 0.55 0.7166667 1.05 1 1 1
v 0.55 0.7 1.15 1 1 1
v 0.275 0.7 1.15 1 1 1
v -0.275 0.7 1.15 1 1 1
v -0.55 0.7 1.15 1 1 1
v -0.75 0.8 0.3229022 1 1 1
v -0.75 0.8 0.4229022 1 1 1
v 0.275 0.6 -1.25 1 1 1
v -0.275 0.6 -1.25 1 1 1
v 0.55 0.6 -1.25 1 1 1
v 0.55 0.6 1.05 1 1 1
v 0.55 0.6 1.15 1 1 1
v 0.55 0.8 -0.1402287 1 1 1
v 0.45 1.3 -0.4961484 1 1 1
v -0.45 1.3 -0.4961484 1 1 1
v 0.46 1.25 -0.57 1 1 1
v -0.46 1.25 -0.57 1 1 1
v 0.4696116 1.201942 0.1013487 1 1 1
v 0.4696116 1.201942 -0.1402287 1 1 1
v -0.4696116 1.201942 -0.1402287 1 1 1
v -0.4696116 1.201942 0.1013487 1 1 1
v -0.275 0.6 1.15 1 1 1
v 0.275 0.6 1.15 1 1 1
v -0.429721 0.8928477 -0.7128609 1 1 1
v 0.429721 0.8928477 -0.7128609 1 1 1
v -0.36686 1.207152 -0.5871391 1 1 1
v 0.36686 1.207152 -0.5871391 1 1 1
v 0.55 0.7166667 1.05 1 1 1
v 0.55 0.6 1.05 1 1 1
v -0.55 0.6 1.05 1 1 1
v -0.55 0.7166667 1.05 1 1 1
v -0.429721 0.8928477 -0.712861 1 1 1
v 0.429721 0.8928477 -0.712861 1 1 1
v -0.36686 1.207152 -0.5871392 1 1 1
v 0.36686 1.207152 -0.5871392 1 1 1
v 0.4487878 0.8 0.5499999 1 1 1
v -0.4487878 0.8 0.5499999 1 1 1
v 0.3644052 1.221913 0.2124694 1 1 1
v -0.3644052 1.221913 0.2124694 1 1 1
v 0.4696116 1.201942 -0.1402288 1 1 1
v 0.55 0.8 -0.1402288 1 1 1
v 0.4696116 1.201942 0.1013486 1 1 1
v 0.55 0.8 0.3229021 1 1 1
v 0.55 0.8 0.4229021 1 1 1
v -0.55 0.8 -0.1402288 1 1 1
v -0.4696116 1.201942 -0.1402288 1 1 1
v -0.55 0.8 0.3229021 1 1 1
v -0.4696116 1.201942 0.1013486 1 1 1
v -0.55 0.8 0.4229021 1 1 1
v -0.55 0.6 -1.25 1 1 1
v -0.275 0.6 -1.25 1 1 1
v -0.55 0.7 -1.25 1 1 1
v -0.275 0.7 -1.25 1 1 1
v 0.275 0.6 -1.25 1 1 1
v 0.55 0.6 -1.25 1 1 1
v 0.275 0.7 -1.25 1 1 1
v 0.55 0.7 -1.25 1 1 1
vn 0 0.7518399 -0.6593459
vn 0 0.8132414 -0.5819266
vn 0 0.258819 -0.9659258
vn 0 0.2338908 -0.972263
vn 0.9486833 -0.3162278 0
vn 0 0.8660254 0.5
vn 0 0.7071068 0.7071068
vn 0 0.9659258 0.258819
vn 0 0.8660254 -0.5
vn 0 0.9659258 -0.258819
vn 0 0.7071068 -0.7071068
vn 0 0.5 -0.8660254
vn 0 0.4799034 -0.8773214
vn 0 0.4799034 0.8773214
vn 0 0.6087614 0.7933533
vn 0 0.5 0.8660254
vn 0 1 0
vn -0.9486833 -0.3162278 0
vn 0 0.2338908 0.972263
vn 0 0.258819 0.9659258
vn 0 0.1305262 -0.9914449
vn 0 0.6087614 -0.7933533
vn 0 0.1305262 0.9914449
vn 0 -0.3162278 0.9486833
vn 0 0.8132414 0.5819266
vn 0 0.7518399 0.6593459
vn 0 -0.5547002 -0.8320503
vn -0.1950903 0 0.9807853
vn -0.7071068 0 0.7071068
vn -0.9238795 0 0.3826834
vn 0.1950903 0 0.9807853
vn 0.9238795 0 0.3826834
vn 0.7071068 0 0.7071068
vn 0.1950903 0 -0.9807853
vn 0.7071068 0 -0.7071068
vn -0.1950903 0 -0.9807853
vn -0.7071068 0 -0.7071068
vn 0 -1 0
vn -0.9238795 0 -0.3826834
vn 0.9238795 0 -0.3826834
vn -0.3826834 -0.9238795 0
vn -0.9238795 -0.3826834 0
vn 0.3826834 -0.9238795 0
vn 0.9238795 -0.3826834 0
vn -0.3826834 0.9238795 0
vn -0.9238795 0.3826834 0
vn 0 0 1
vn 0.3826834 0.9238795 0
vn 0.9238795 0.3826834 0
vn 0.3826834 -0.9238795 4.24864E-17
vn 0.9238795 -0.3826834 1.025712E-16
vn -0.3826834 -0.9238795 -4.24864E-17
vn -0.9238795 -0.3826834 -1.025712E-16
vn 0.3826834 0.9238795 4.24864E-17
vn 0.9238795 0.3826834 1.025712E-16
vn 1.110223E-16 0 -1
vn -0.3826834 0.9238795 -4.24864E-17
vn -0.9238795 0.3826834 -1.025712E-16
vn 0 -0.5 -0.8660254
vn 0 -0.7071068 -0.7071068
vn 0 -0.8660254 -0.5
vn 0 -0.9659258 -0.258819
vn 0 -0.258819 0.9659258
vn 0 -0.5 0.8660254
vn 0 0 -1
vn 0 -0.06540313 -0.9978589
vn 0 -0.9659258 0.258819
vn 0 -0.06540313 0.9978589
vn 0 -0.8660254 0.5
vn 0 -0.7071068 0.7071068
vn 0 -0.258819 -0.9659258
vn 0.7071068 0.7071068 0
vn 0 0.9805807 -0.1961161
vn 0 0.7898501 -0.6133
vn 0 0.8723749 0.4888374
vn 0 0.9131909 0.4075322
vn 0 0.8912913 0.4534311
vn 0 0.6246951 0.7808689
vn 0 0.986394 0.164399
vn -0.7071068 0.7071068 0
vn 0 0.9529121 -0.3032468
vn 0 0.6051134 -0.7961392
vn 0.9805807 0.1961161 0
vn -0.9805807 0.1961161 0
vn 0 0.3713907 -0.9284768
vn -1.110223E-16 0 1
vn -0.7414976 0 0.6709555
vn 0.7414976 0 0.6709555
vt 0.46875 0.3184783
vt 0.46875 0.3186416
vt 0.46875 0.2836956
vt 0.46875 0.335
vt 0.46875 0.301087
vt 0.46875 0.3490472
vt 0.46875 0.3145906
vt 0.46875 0.3271739
vt 0.46875 0.3598261
vt 0.46875 0.3379795
vt 0.46875 0.3462709
vt 0.46875 0.3666019
vt 0.46875 0.3514831
vt 0.46875 0.3689131
vt 0.46875 0.3532609
vt 0.46875 0.3358696
vt 0.46875 0.275
vt 0.46875 0.3321429
vt 0.46875 0.475
vt 0.46875 0.4178571
vt 0.34375 0.3271739
vt 0.34375 0.3379795
vt 0.34375 0.3462709
vt 0.34375 0.3514831
vt 0.34375 0.3145906
vt 0.34375 0.2836956
vt 0.34375 0.301087
vt 0.34375 0.3532609
vt 0.84375 0.6206522
vt 0.84375 0.6380435
vt 0.84375 0.6032609
vt 0.84375 0.5858696
vt 0.84375 0.6235507
vt 0.84375 0.5990472
vt 0.84375 0.6098261
vt 0.84375 0.6166019
vt 0.84375 0.6189131
vt 0.84375 0.725
vt 0.84375 0.7114197
vt 0.84375 0.7163044
vt 0.84375 0.7079464
vt 0.84375 0.6541909
vt 0.84375 0.7088525
vt 0.84375 0.3706522
vt 0.84375 0.3880435
vt 0.84375 0.275
vt 0.84375 0.3321429
vt 0.84375 0.4178571
vt 0.84375 0.475
vt 0.21875 0.025
vt 0.21875 0.1964286
vt 0.21875 0.225
vt 0.09375 0.06901269
vt 0.09375 0.2180029
vt 0.09375 0.025
vt 0.09375 0.225
vt 0.09375 0.215533
vt 0.34375 0.025
vt 0.34375 0.105
usemtl colormap
f 219/70/126 218/69/125 217/69/124
f 218/69/125 219/70/126 220/70/127
f 223/71/98 222/69/98 221/71/98
f 222/69/98 223/71/98 217/69/98
f 217/69/98 223/71/98 219/70/98
f 219/70/98 223/71/98 224/72/98
f 224/72/98 223/71/98 225/73/98
f 224/72/98 225/73/98 226/74/98
f 226/74/98 225/73/98 227/75/98
f 226/74/98 227/75/98 228/76/98
f 226/74/98 228/76/98 229/77/98
f 229/77/98 228/76/98 230/78/98
f 229/77/98 230/78/98 231/79/98
f 229/77/98 231/79/98 232/80/98
f 232/80/98 231/79/98 233/81/98
f 232/80/98 233/81/98 234/82/98
f 234/82/98 233/81/98 235/83/98
f 234/82/98 235/83/98 236/81/98
f 234/82/98 236/81/98 237/80/98
f 237/80/98 236/81/98 238/79/98
f 237/80/98 238/79/98 239/77/98
f 239/77/98 238/79/98 240/78/98
f 239/77/98 240/78/98 241/74/98
f 241/74/98 240/78/98 242/76/98
f 241/74/98 242/76/98 243/75/98
f 241/74/98 243/75/98 244/72/98
f 244/72/98 243/75/98 245/73/98
f 244/72/98 245/73/98 246/71/98
f 244/72/98 246/71/98 247/73/98
f 244/72/98 247/73/98 248/70/98
f 247/73/98 246/71/98 249/71/98
f 247/73/98 249/71/98 250/73/98
f 250/73/98 249/71/98 251/70/98
f 251/70/98 249/71/98 252/72/98
f 252/72/98 249/71/98 253/73/98
f 252/72/98 253/73/98 254/74/98
f 254/74/98 253/73/98 255/75/98
f 254/74/98 255/75/98 256/76/98
f 254/74/98 256/76/98 257/77/98
f 257/77/98 256/76/98 258/78/98
f 257/77/98 258/78/98 259/79/98
f 257/77/98 259/79/98 260/80/98
f 260/80/98 259/79/98 261/81/98
f 260/80/98 261/81/98 262/82/98
f 262/82/98 261/81/98 263/83/98
f 262/82/98 263/83/98 264/81/98
f 262/82/98 264/81/98 265/80/98
f 265/80/98 264/81/98 266/79/98
f 265/80/98 266/79/98 267/77/98
f 267/77/98 266/79/98 268/78/98
f 267/77/98 268/78/98 269/74/98
f 269/74/98 268/78/98 270/76/98
f 269/74/98 270/76/98 271/75/98
f 269/74/98 271/75/98 272/72/98
f 272/72/98 271/75/98 273/73/98
f 272/72/98 273/73/98 274/71/98
f 272/72/98 274/71/98 275/71/98
f 272/72/98 275/71/98 276/69/98
f 272/72/98 276/69/98 277/70/98
f 276/69/98 275/71/98 278/69/98
f 281/69/97 280/72/97 279/70/97
f 282/71/97 280/72/97 281/69/97
f 282/71/97 281/69/97 283/69/97
f 284/71/97 280/72/97 282/71/97
f 285/73/97 280/72/97 284/71/97
f 286/75/97 280/72/97 285/73/97
f 286/75/97 287/74/97 280/72/97
f 288/76/97 287/74/97 286/75/97
f 289/78/97 287/74/97 288/76/97
f 289/78/97 290/77/97 287/74/97
f 291/79/97 290/77/97 289/78/97
f 291/79/97 292/80/97 290/77/97
f 293/81/97 292/80/97 291/79/97
f 294/83/97 292/80/97 293/81/97
f 294/83/97 295/82/97 292/80/97
f 296/81/97 295/82/97 294/83/97
f 296/81/97 297/80/97 295/82/97
f 298/79/97 297/80/97 296/81/97
f 298/79/97 299/77/97 297/80/97
f 300/78/97 299/77/97 298/79/97
f 301/76/97 299/77/97 300/78/97
f 301/76/97 302/74/97 299/77/97
f 303/75/97 302/74/97 301/76/97
f 304/73/97 302/74/97 303/75/97
f 302/74/97 304/73/97 305/72/97
f 306/71/97 305/72/97 304/73/97
f 306/71/97 307/70/97 305/72/97
f 306/71/97 308/73/97 307/70/97
f 306/71/97 309/73/97 308/73/97
f 310/71/97 309/73/97 306/71/97
f 310/71/97 311/72/97 309/73/97
f 309/73/97 311/72/97 312/70/97
f 313/73/97 311/72/97 310/71/97
f 314/75/97 311/72/97 313/73/97
f 314/75/97 315/74/97 311/72/97
f 316/76/97 315/74/97 314/75/97
f 317/78/97 315/74/97 316/76/97
f 317/78/97 318/77/97 315/74/97
f 319/79/97 318/77/97 317/78/97
f 319/79/97 320/80/97 318/77/97
f 321/81/97 320/80/97 319/79/97
f 322/83/97 320/80/97 321/81/97
f 322/83/97 323/82/97 320/80/97
f 324/81/97 323/82/97 322/83/97
f 324/81/97 325/80/97 323/82/97
f 326/79/97 325/80/97 324/81/97
f 326/79/97 327/77/97 325/80/97
f 328/78/97 327/77/97 326/79/97
f 329/76/97 327/77/97 328/78/97
f 329/76/97 330/74/97 327/77/97
f 331/75/97 330/74/97 329/76/97
f 332/73/97 330/74/97 331/75/97
f 330/74/97 332/73/97 333/72/97
f 334/71/97 333/72/97 332/73/97
f 334/71/97 335/70/97 333/72/97
f 334/71/97 336/69/97 335/70/97
f 337/71/97 336/69/97 334/71/97
f 336/69/97 337/71/97 338/69/97
f 341/84/128 340/72/128 339/84/128
f 340/72/128 341/84/128 342/70/128
f 342/70/128 341/84/128 343/69/128
f 343/69/128 341/84/128 344/69/128
f 347/84/128 346/69/128 345/84/128
f 346/69/128 347/84/128 348/69/128
f 348/69/128 347/84/128 349/70/128
f 349/70/128 347/84/128 350/72/128
f 350/72/128 347/84/128 351/84/128
f 267/77/129 353/74/130 352/77/129
f 353/74/130 267/77/129 269/74/130
f 237/80/131 355/77/129 354/80/131
f 355/77/129 237/80/131 239/77/129
f 356/77/132 297/80/133 299/77/132
f 297/80/133 356/77/132 357/80/133
f 358/80/131 318/77/129 320/80/131
f 318/77/129 358/80/131 359/77/129
f 360/74/134 327/77/132 330/74/134
f 327/77/132 360/74/134 361/77/132
f 362/70/127 305/72/135 307/70/126
f 305/72/135 362/70/127 363/72/136
f 311/72/139 365/84/138 364/72/137
f 365/84/138 311/72/139 315/74/130
f 365/84/138 315/74/130 366/74/130
f 239/77/129 367/74/130 355/77/129
f 367/74/130 239/77/129 241/74/130
f 368/74/134 299/77/132 302/74/134
f 299/77/132 368/74/134 356/77/132
f 359/77/129 315/74/130 318/77/129
f 315/74/130 359/77/129 366/74/130
f 357/80/133 295/82/140 297/80/133
f 295/82/140 357/80/133 369/82/140
f 369/82/140 292/80/131 295/82/140
f 292/80/131 369/82/140 370/80/131
f 371/77/129 287/74/130 290/77/129
f 287/74/130 371/77/129 372/74/130
f 234/82/140 354/80/131 373/82/140
f 354/80/131 234/82/140 237/80/131
f 374/82/140 320/80/131 323/82/140
f 320/80/131 374/82/140 358/80/131
f 252/72/135 375/70/127 251/70/126
f 375/70/127 252/72/135 376/72/136
f 361/77/132 325/80/133 327/77/132
f 325/80/133 361/77/132 377/80/133
f 380/69/141 379/84/141 378/84/141
f 379/84/141 380/69/141 218/69/141
f 379/84/141 218/69/141 220/70/141
f 379/84/141 220/70/141 381/72/141
f 379/84/141 381/72/141 382/84/141
f 384/72/137 248/70/143 383/70/142
f 248/70/143 384/72/137 244/72/139
f 384/72/141 386/84/141 385/84/141
f 386/84/141 384/72/141 383/70/141
f 386/84/141 383/70/141 387/73/141
f 386/84/141 387/73/141 376/72/141
f 376/72/141 387/73/141 375/70/141
f 375/70/141 387/73/141 388/73/141
f 280/72/139 342/70/142 279/70/143
f 342/70/142 280/72/139 340/72/137
f 389/84/128 364/72/128 365/84/128
f 364/72/128 389/84/128 390/70/128
f 390/70/128 389/84/128 391/73/128
f 391/73/128 389/84/128 363/72/128
f 391/73/128 363/72/128 362/70/128
f 391/73/128 362/70/128 392/73/128
f 393/70/142 272/72/139 277/70/143
f 272/72/139 393/70/142 394/72/137
f 254/74/134 396/77/132 395/74/134
f 396/77/132 254/74/134 257/77/132
f 232/80/133 373/82/140 397/80/133
f 373/82/140 232/80/133 234/82/140
f 224/72/135 220/70/127 219/70/126
f 220/70/127 224/72/135 381/72/136
f 251/70/126 388/73/144 250/73/144
f 388/73/144 251/70/126 375/70/127
f 312/70/143 364/72/137 390/70/142
f 364/72/137 312/70/143 311/72/139
f 226/74/134 381/72/136 224/72/135
f 381/72/136 226/74/134 382/84/145
f 382/84/145 226/74/134 398/74/134
f 309/73/146 390/70/142 391/73/146
f 390/70/142 309/73/146 312/70/143
f 260/80/133 400/82/140 399/80/133
f 400/82/140 260/80/133 262/82/140
f 280/72/139 339/84/138 340/72/137
f 339/84/138 280/72/139 287/74/130
f 339/84/138 287/74/130 372/74/130
f 389/84/145 305/72/135 363/72/136
f 305/72/135 389/84/145 302/74/134
f 302/74/134 389/84/145 368/74/134
f 362/70/127 308/73/144 392/73/144
f 308/73/144 362/70/127 307/70/126
f 265/80/131 352/77/129 401/80/131
f 352/77/129 265/80/131 267/77/129
f 385/84/138 244/72/139 384/72/137
f 244/72/139 385/84/138 241/74/130
f 241/74/130 385/84/138 367/74/130
f 402/84/138 272/72/139 394/72/137
f 272/72/139 402/84/138 269/74/130
f 269/74/130 402/84/138 353/74/130
f 377/80/133 323/82/140 325/80/133
f 323/82/140 377/80/133 374/82/140
f 262/82/140 401/80/131 400/82/140
f 401/80/131 262/82/140 265/80/131
f 349/70/127 336/69/124 348/69/125
f 336/69/124 349/70/127 335/70/126
f 247/73/140 388/73/140 387/73/140
f 388/73/140 247/73/140 250/73/140
f 229/77/132 397/80/133 403/77/132
f 397/80/133 229/77/132 232/80/133
f 349/70/127 333/72/135 335/70/126
f 333/72/135 349/70/127 350/72/136
f 383/70/142 247/73/146 387/73/146
f 247/73/146 383/70/142 248/70/143
f 252/72/135 386/84/145 376/72/136
f 386/84/145 252/72/135 254/74/134
f 386/84/145 254/74/134 395/74/134
f 257/77/132 399/80/133 396/77/132
f 399/80/133 257/77/132 260/80/133
f 350/72/136 330/74/134 333/72/135
f 330/74/134 350/72/136 351/84/145
f 330/74/134 351/84/145 360/74/134
f 391/73/140 308/73/140 309/73/140
f 308/73/140 391/73/140 392/73/140
f 370/80/131 290/77/129 292/80/131
f 290/77/129 370/80/131 371/77/129
f 341/84/147 404/69/147 344/69/147
f 404/69/147 341/84/147 405/84/147
f 276/69/149 404/69/140 406/69/148
f 404/69/140 276/69/149 407/69/140
f 407/69/140 344/69/140 404/69/140
f 407/69/140 276/69/149 408/69/140
f 408/69/140 276/69/149 278/69/140
f 409/69/140 344/69/140 407/69/140
f 409/69/140 343/69/148 344/69/140
f 410/69/140 343/69/148 409/69/140
f 283/69/140 343/69/148 410/69/140
f 343/69/148 283/69/140 281/69/149
f 393/70/142 276/69/149 406/69/148
f 276/69/149 393/70/142 277/70/143
f 226/74/134 403/77/132 398/74/134
f 403/77/132 226/74/134 229/77/132
f 394/72/141 405/84/141 402/84/141
f 405/84/141 394/72/141 393/70/141
f 405/84/141 393/70/141 406/69/141
f 405/84/141 406/69/141 404/69/141
f 279/70/143 343/69/148 281/69/149
f 343/69/148 279/70/143 342/70/142
f 378/84/150 346/69/150 380/69/150
f 346/69/150 378/84/150 345/84/150
f 407/69/151 412/71/152 411/71/151
f 412/71/152 407/69/151 408/69/152
f 412/71/152 278/69/153 275/71/153
f 278/69/153 412/71/152 408/69/152
f 409/69/154 411/71/151 413/71/154
f 411/71/151 409/69/154 407/69/151
f 410/69/156 282/71/155 283/69/155
f 282/71/155 410/69/156 414/71/156
f 410/69/156 413/71/154 414/71/156
f 413/71/154 410/69/156 409/69/154
f 417/69/157 416/71/158 415/71/157
f 416/71/158 417/69/157 418/69/158
f 420/69/159 415/71/157 419/71/159
f 415/71/157 420/69/159 417/69/157
f 422/69/160 419/71/159 421/71/160
f 419/71/159 422/69/160 420/69/159
f 217/69/124 422/69/140 222/69/140
f 217/69/124 420/69/140 422/69/140
f 218/69/125 420/69/140 217/69/124
f 380/69/140 420/69/140 218/69/125
f 346/69/140 420/69/140 380/69/140
f 420/69/140 346/69/140 417/69/140
f 348/69/125 417/69/140 346/69/140
f 348/69/125 418/69/140 417/69/140
f 336/69/124 418/69/140 348/69/125
f 418/69/140 336/69/124 338/69/140
f 306/71/161 423/71/161 310/71/161
f 423/71/161 306/71/161 424/71/161
f 423/71/161 424/71/161 425/71/161
f 419/71/161 425/71/161 424/71/161
f 415/71/161 425/71/161 419/71/161
f 416/71/161 425/71/161 415/71/161
f 416/71/161 334/71/161 425/71/161
f 334/71/161 416/71/161 337/71/161
f 419/71/161 424/71/161 426/71/161
f 419/71/161 426/71/161 223/71/161
f 419/71/161 223/71/161 421/71/161
f 421/71/161 223/71/161 221/71/161
f 426/71/161 424/71/161 427/71/161
f 424/71/161 428/71/161 427/71/161
f 429/71/161 427/71/161 428/71/161
f 427/71/161 429/71/161 246/71/161
f 246/71/161 429/71/161 249/71/161
f 424/71/161 411/71/161 428/71/161
f 428/71/161 411/71/161 274/71/161
f 430/71/161 411/71/161 424/71/161
f 274/71/161 411/71/161 412/71/161
f 274/71/161 412/71/161 275/71/161
f 430/71/161 413/71/161 411/71/161
f 430/71/161 414/71/161 413/71/161
f 430/71/161 282/71/161 414/71/161
f 282/71/161 430/71/161 284/71/161
f 221/71/162 422/69/160 421/71/160
f 422/69/160 221/71/162 222/69/162
f 338/69/163 416/71/158 418/69/158
f 416/71/158 338/69/163 337/71/163
f 449/85/173 448/86/174 447/85/173
f 448/86/174 449/85/173 450/86/174
f 452/85/175 447/85/173 451/85/175
f 447/85/173 452/85/175 449/85/173
f 454/86/176 451/85/175 453/86/176
f 451/85/175 454/86/176 452/85/175
f 457/88/178 456/87/177 455/87/177
f 456/87/177 457/88/178 458/88/178
f 450/86/174 457/88/178 448/86/174
f 457/88/178 450/86/174 458/88/178
f 454/86/179 449/85/179 452/85/179
f 449/85/179 454/86/179 450/86/179
f 450/86/179 454/86/179 459/88/179
f 450/86/179 459/88/179 458/88/179
f 458/88/179 459/88/179 460/87/179
f 458/88/179 460/87/179 456/87/179
f 455/87/177 460/87/180 461/87/180
f 460/87/180 455/87/177 456/87/177
f 459/88/181 453/86/176 462/88/181
f 453/86/176 459/88/181 454/86/176
f 461/87/180 459/88/181 462/88/181
f 459/88/181 461/87/180 460/87/180
f 463/89/182 317/90/183 316/89/182
f 317/90/183 463/89/182 464/90/183
f 465/91/184 321/92/185 319/91/184
f 321/92/185 465/91/184 466/92/185
f 329/89/187 467/93/186 331/93/186
f 467/93/186 329/89/187 468/89/187
f 469/91/184 293/92/185 291/91/184
f 293/92/185 469/91/184 470/92/185
f 471/89/182 289/90/183 288/89/182
f 289/90/183 471/89/182 472/90/183
f 245/95/189 427/94/188 246/94/188
f 427/94/188 245/95/189 473/95/189
f 474/96/161 324/92/190 322/96/161
f 324/92/190 474/96/161 475/92/190
f 304/95/191 424/94/170 306/94/170
f 424/94/170 304/95/191 476/95/191
f 332/95/191 425/94/170 334/94/170
f 425/94/170 332/95/191 477/95/191
f 472/90/183 291/91/184 289/90/183
f 291/91/184 472/90/183 469/91/184
f 478/91/192 300/90/193 298/91/192
f 300/90/193 478/91/192 479/90/193
f 480/91/192 328/90/193 326/91/192
f 328/90/193 480/91/192 481/90/193
f 470/92/185 294/96/161 293/92/185
f 294/96/161 470/92/185 482/96/161
f 483/92/190 298/91/192 296/92/190
f 298/91/192 483/92/190 478/91/192
f 328/90/193 468/89/187 329/89/187
f 468/89/187 328/90/193 481/90/193
f 464/90/183 319/91/184 317/90/183
f 319/91/184 464/90/183 465/91/184
f 303/93/186 476/95/191 304/95/191
f 476/95/191 303/93/186 484/93/186
f 485/93/194 316/89/182 314/93/194
f 316/89/182 485/93/194 463/89/182
f 486/95/189 314/93/194 313/95/189
f 314/93/194 486/95/189 485/93/194
f 331/93/186 477/95/191 332/95/191
f 477/95/191 331/93/186 467/93/186
f 475/92/190 326/91/192 324/92/190
f 326/91/192 475/92/190 480/91/192
f 301/89/187 484/93/186 303/93/186
f 484/93/186 301/89/187 487/89/187
f 488/95/189 286/93/194 285/95/189
f 286/93/194 488/95/189 489/93/194
f 300/90/193 487/89/187 301/89/187
f 487/89/187 300/90/193 479/90/193
f 489/93/194 288/89/182 286/93/194
f 288/89/182 489/93/194 471/89/182
f 466/92/185 322/96/161 321/92/185
f 322/96/161 466/92/185 474/96/161
f 273/95/189 428/94/188 274/94/188
f 428/94/188 273/95/189 490/95/189
f 482/96/161 296/92/190 294/96/161
f 296/92/190 482/96/161 483/92/190
f 271/93/194 490/95/189 273/95/189
f 490/95/189 271/93/194 491/93/194
f 492/95/191 249/94/170 429/94/170
f 249/94/170 492/95/191 253/95/191
f 263/96/161 494/92/190 493/96/161
f 494/92/190 263/96/161 261/92/190
f 261/92/190 495/91/192 494/92/190
f 495/91/192 261/92/190 259/91/192
f 268/90/183 496/89/182 270/89/182
f 496/89/182 268/90/183 497/90/183
f 498/93/186 253/95/191 492/95/191
f 253/95/191 498/93/186 255/93/186
f 500/90/193 256/89/187 499/89/187
f 256/89/187 500/90/193 258/90/193
f 499/89/187 255/93/186 498/93/186
f 255/93/186 499/89/187 256/89/187
f 259/91/192 500/90/193 495/91/192
f 500/90/193 259/91/192 258/90/193
f 268/90/183 501/91/184 497/90/183
f 501/91/184 268/90/183 266/91/184
f 264/92/185 493/96/161 502/92/185
f 493/96/161 264/92/185 263/96/161
f 270/89/182 491/93/194 271/93/194
f 491/93/194 270/89/182 496/89/182
f 266/91/184 502/92/185 501/91/184
f 502/92/185 266/91/184 264/92/185
f 428/94/98 492/95/98 429/94/98
f 492/95/98 428/94/98 498/93/98
f 498/93/98 428/94/98 499/89/98
f 499/89/98 428/94/98 500/90/98
f 500/90/98 428/94/98 495/91/98
f 495/91/98 428/94/98 494/92/98
f 494/92/98 428/94/98 493/96/98
f 493/96/98 428/94/98 502/92/98
f 502/92/98 428/94/98 501/91/98
f 501/91/98 428/94/98 497/90/98
f 497/90/98 428/94/98 496/89/98
f 496/89/98 428/94/98 491/93/98
f 491/93/98 428/94/98 490/95/98
f 484/93/97 424/94/97 476/95/97
f 424/94/97 484/93/97 430/94/97
f 430/94/97 484/93/97 487/89/97
f 430/94/97 487/89/97 479/90/97
f 430/94/97 479/90/97 478/91/97
f 430/94/97 478/91/97 483/92/97
f 430/94/97 483/92/97 482/96/97
f 430/94/97 482/96/97 470/92/97
f 430/94/97 470/92/97 469/91/97
f 430/94/97 469/91/97 472/90/97
f 430/94/97 472/90/97 471/89/97
f 430/94/97 471/89/97 489/93/97
f 430/94/97 489/93/97 488/95/97
f 488/95/189 284/94/188 430/94/188
f 284/94/188 488/95/189 285/95/189
f 467/93/97 425/94/97 477/95/97
f 425/94/97 467/93/97 423/94/97
f 423/94/97 467/93/97 468/89/97
f 423/94/97 468/89/97 481/90/97
f 423/94/97 481/90/97 480/91/97
f 423/94/97 480/91/97 475/92/97
f 423/94/97 475/92/97 474/96/97
f 423/94/97 474/96/97 466/92/97
f 423/94/97 466/92/97 465/91/97
f 423/94/97 465/91/97 464/90/97
f 423/94/97 464/90/97 463/89/97
f 423/94/97 463/89/97 485/93/97
f 423/94/97 485/93/97 486/95/97
f 427/94/98 503/95/98 426/94/98
f 503/95/98 427/94/98 504/93/98
f 504/93/98 427/94/98 505/89/98
f 505/89/98 427/94/98 506/90/98
f 506/90/98 427/94/98 507/91/98
f 507/91/98 427/94/98 508/92/98
f 508/92/98 427/94/98 509/96/98
f 509/96/98 427/94/98 510/92/98
f 510/92/98 427/94/98 511/91/98
f 511/91/98 427/94/98 512/90/98
f 512/90/98 427/94/98 513/89/98
f 513/89/98 427/94/98 514/93/98
f 514/93/98 427/94/98 473/95/98
f 486/95/189 310/94/188 423/94/188
f 310/94/188 486/95/189 313/95/189
f 243/93/194 473/95/189 245/95/189
f 473/95/189 243/93/194 514/93/194
f 503/95/191 223/94/170 426/94/170
f 223/94/170 503/95/191 225/95/191
f 235/96/161 508/92/190 509/96/161
f 508/92/190 235/96/161 233/92/190
f 233/92/190 507/91/192 508/92/190
f 507/91/192 233/92/190 231/91/192
f 242/89/182 512/90/183 513/89/182
f 512/90/183 242/89/182 240/90/183
f 504/93/186 225/95/191 503/95/191
f 225/95/191 504/93/186 227/93/186
f 506/90/193 228/89/187 505/89/187
f 228/89/187 506/90/193 230/90/193
f 505/89/187 227/93/186 504/93/186
f 227/93/186 505/89/187 228/89/187
f 240/90/183 511/91/184 512/90/183
f 511/91/184 240/90/183 238/91/184
f 236/92/185 509/96/161 510/92/185
f 509/96/161 236/92/185 235/96/161
f 231/91/192 506/90/193 507/91/192
f 506/90/193 231/91/192 230/90/193
f 242/89/182 514/93/194 243/93/194
f 514/93/194 242/89/182 513/89/182
f 238/91/184 510/92/185 511/91/184
f 510/92/185 238/91/184 236/92/185
f 517/98/170 516/97/170 515/97/170
f 516/97/170 517/98/170 518/98/170
f 520/98/140 517/98/195 519/98/195
f 517/98/195 520/98/140 518/98/140
f 522/99/98 405/100/98 521/99/98
f 405/100/98 522/99/98 402/100/98
f 523/101/98 402/100/98 522/99/98
f 523/101/98 353/102/98 402/100/98
f 523/101/98 352/103/98 353/102/98
f 523/101/98 401/104/98 352/103/98
f 523/101/98 400/105/98 401/104/98
f 524/98/98 400/105/98 523/101/98
f 524/98/98 399/104/98 400/105/98
f 524/98/98 396/103/98 399/104/98
f 525/98/98 396/103/98 524/98/98
f 526/97/98 396/103/98 525/98/98
f 526/97/98 395/102/98 396/103/98
f 526/97/98 386/100/98 395/102/98
f 527/97/98 386/100/98 526/97/98
f 528/98/98 386/100/98 527/97/98
f 529/98/98 528/98/98 527/97/98
f 528/98/98 385/100/98 386/100/98
f 528/98/98 367/102/98 385/100/98
f 528/98/98 355/103/98 367/102/98
f 528/98/98 354/104/98 355/103/98
f 528/98/98 373/105/98 354/104/98
f 530/98/98 373/105/98 528/98/98
f 530/98/98 397/104/98 373/105/98
f 530/98/98 403/103/98 397/104/98
f 530/98/98 398/102/98 403/103/98
f 530/98/98 379/100/98 398/102/98
f 398/102/98 379/100/98 382/100/98
f 531/97/98 379/100/98 530/98/98
f 532/99/98 379/100/98 531/97/98
f 379/100/98 532/99/98 378/100/98
f 516/97/161 533/97/161 515/97/161
f 533/97/161 516/97/161 534/97/161
f 537/97/196 536/98/197 535/97/196
f 536/98/197 537/97/196 530/98/197
f 530/98/197 537/97/196 538/97/196
f 530/98/197 538/97/196 531/97/196
f 541/106/200 540/98/199 539/98/198
f 540/98/199 541/106/200 542/107/201
f 542/107/201 541/106/200 543/107/201
f 544/106/200 543/107/201 541/106/200
f 524/98/198 543/107/201 544/106/200
f 543/107/201 524/98/198 545/98/199
f 546/97/161 527/97/161 526/97/161
f 527/97/161 546/97/161 547/97/161
f 540/98/199 548/101/202 539/98/198
f 548/101/202 540/98/199 549/97/202
f 549/97/202 540/98/199 550/97/202
f 550/97/202 540/98/199 545/98/199
f 550/97/202 545/98/199 551/97/202
f 551/97/202 545/98/199 552/97/202
f 552/97/202 545/98/199 524/98/198
f 552/97/202 524/98/198 523/101/202
f 553/98/203 525/98/140 529/98/140
f 525/98/140 553/98/203 554/98/203
f 555/99/188 538/97/188 537/97/188
f 538/97/188 555/99/188 556/99/188
f 557/99/188 556/99/188 555/99/188
f 557/99/188 532/99/188 556/99/188
f 345/100/188 532/99/188 557/99/188
f 532/99/188 345/100/188 378/100/188
f 525/98/170 546/97/170 526/97/170
f 546/97/170 525/98/170 554/98/170
f 546/97/98 553/98/203 547/97/98
f 553/98/203 546/97/98 554/98/203
f 517/98/195 533/97/97 519/98/195
f 533/97/97 517/98/195 515/97/97
f 539/98/97 516/97/97 518/98/97
f 516/97/97 539/98/97 356/103/97
f 356/103/97 539/98/97 357/104/97
f 368/102/97 516/97/97 356/103/97
f 357/104/97 539/98/97 369/105/97
f 389/100/97 516/97/97 368/102/97
f 369/105/97 539/98/97 548/101/97
f 369/105/97 548/101/97 370/104/97
f 370/104/97 548/101/97 371/103/97
f 371/103/97 548/101/97 372/102/97
f 372/102/97 548/101/97 339/100/97
f 339/100/97 548/101/97 558/99/97
f 339/100/97 558/99/97 341/100/97
f 341/100/97 558/99/97 559/99/97
f 389/100/97 534/97/97 516/97/97
f 389/100/97 560/98/97 534/97/97
f 534/97/97 560/98/97 520/98/97
f 365/100/97 560/98/97 389/100/97
f 366/102/97 560/98/97 365/100/97
f 359/103/97 560/98/97 366/102/97
f 358/104/97 560/98/97 359/103/97
f 374/105/97 560/98/97 358/104/97
f 374/105/97 536/98/97 560/98/97
f 377/104/97 536/98/97 374/105/97
f 361/103/97 536/98/97 377/104/97
f 360/102/97 536/98/97 361/103/97
f 347/100/97 536/98/97 360/102/97
f 347/100/97 360/102/97 351/100/97
f 345/100/97 536/98/97 347/100/97
f 557/99/97 536/98/97 345/100/97
f 536/98/97 557/99/97 535/97/97
f 562/106/204 541/106/200 561/106/204
f 541/106/200 562/106/204 544/106/200
f 564/108/205 561/106/204 563/108/205
f 561/106/204 564/108/205 562/106/204
f 518/98/206 541/106/206 539/98/206
f 565/109/206 541/106/206 518/98/206
f 566/109/206 541/106/206 565/109/206
f 541/106/206 566/109/206 561/106/206
f 560/98/206 561/106/206 566/109/206
f 560/98/206 563/108/206 561/106/206
f 563/108/206 560/98/206 536/98/206
f 528/98/207 564/108/207 530/98/207
f 564/108/207 528/98/207 562/106/207
f 562/106/207 528/98/207 567/109/207
f 562/106/207 567/109/207 544/106/207
f 544/106/207 567/109/207 568/109/207
f 544/106/207 568/109/207 525/98/207
f 544/106/207 525/98/207 524/98/207
f 569/99/170 550/97/170 551/97/170
f 550/97/170 569/99/170 570/99/170
f 521/99/170 570/99/170 569/99/170
f 521/99/170 559/99/170 570/99/170
f 405/100/170 559/99/170 521/99/170
f 559/99/170 405/100/170 341/100/170
f 530/98/197 571/110/208 536/98/197
f 571/110/208 530/98/197 564/108/205
f 572/110/208 536/98/197 571/110/208
f 571/110/208 564/108/205 573/111/208
f 536/98/197 572/110/208 563/108/205
f 573/111/208 564/108/205 574/111/208
f 563/108/205 572/110/208 574/111/208
f 563/108/205 574/111/208 564/108/205
f 520/113/188 533/112/188 534/112/188
f 533/112/188 520/113/188 519/113/188
f 553/113/188 527/112/188 547/112/188
f 527/112/188 553/113/188 529/113/188
f 448/115/209 451/114/209 447/114/209
f 451/114/209 448/115/209 453/115/209
f 453/115/209 448/115/209 457/116/209
f 453/115/209 457/116/209 462/116/209
f 462/116/209 457/116/209 455/117/209
f 462/116/209 455/117/209 461/117/209
f 551/119/170 521/118/152 569/118/170
f 521/118/152 551/119/170 552/119/210
f 549/119/211 570/118/170 559/118/156
f 570/118/170 549/119/211 550/119/170
f 549/119/211 576/118/97 575/120/97
f 576/118/97 549/119/211 559/118/156
f 521/118/152 578/120/98 577/118/98
f 578/120/98 521/118/152 552/119/210
f 581/122/208 580/121/208 579/121/208
f 580/121/208 581/122/208 582/122/208
f 585/124/201 584/123/201 583/123/201
f 584/123/201 585/124/201 586/124/201
f 589/125/206 588/123/206 587/125/206
f 588/123/206 589/125/206 590/123/206
f 590/123/206 589/125/206 591/123/206
f 594/123/207 593/125/207 592/123/207
f 593/125/207 594/123/207 595/125/207
f 595/125/207 594/123/207 596/123/207
f 599/127/188 598/126/188 597/126/188
f 598/126/188 599/127/188 600/127/188
f 603/127/188 602/126/188 601/126/188
f 602/126/188 603/127/188 604/127/188
v 0.35 0.5598077 -0.8099999 1 1 1
v 0.5 0.5598077 -0.8099999 1 1 1
v 0.35 0.512132 -0.872132 1 1 1
v 0.5 0.512132 -0.872132 1 1 1
v 0.6 0.3 -0.915 1 1 1
v 0.5 0.3 -0.96 1 1 1
v 0.6 0.3659989 -0.906311 1 1 1
v 0.5 0.3776457 -0.9497777 1 1 1
v 0.5 0.08786798 -0.4478679 1 1 1
v 0.6 0.1196878 -0.4796878 1 1 1
v 0.5 0.15 -0.4001924 1 1 1
v 0.6 0.1725 -0.4391635 1 1 1
v 0.6 0.4275 -0.8808364 1 1 1
v 0.5 0.45 -0.9198076 1 1 1
v 0.6 0.4803122 -0.8403122 1 1 1
v 0.35 0.08786798 -0.4478679 1 1 1
v 0.35 0.15 -0.4001924 1 1 1
v 0.35 0.2223543 -0.3702222 1 1 1
v 0.5 0.2223543 -0.3702222 1 1 1
v 0.35 0.3 -0.36 1 1 1
v 0.5 0.3 -0.36 1 1 1
v 0.6 0.5208365 -0.7875 1 1 1
v 0.5 0.0401924 -0.8099999 1 1 1
v 0.5 0.08786798 -0.872132 1 1 1
v 0.6 0.07916354 -0.7875 1 1 1
v 0.6 0.1196878 -0.8403122 1 1 1
v 0.5 0.0401924 -0.51 1 1 1
v 0.6 0.07916354 -0.5325 1 1 1
v 0.5 0.5598077 -0.51 1 1 1
v 0.6 0.5208365 -0.5325 1 1 1
v 0.5 0.5897778 -0.5823542 1 1 1
v 0.6 0.5463111 -0.5940011 1 1 1
v 0.5 0.512132 -0.4478679 1 1 1
v 0.6 0.4803122 -0.4796878 1 1 1
v 0.6 0.2340012 -0.4136889 1 1 1
v 0.35 0.3776457 -0.3702222 1 1 1
v 0.5 0.3776457 -0.3702222 1 1 1
v 0.35 0.45 -0.4001924 1 1 1
v 0.5 0.45 -0.4001924 1 1 1
v 0.5 0.5897778 -0.7376457 1 1 1
v 0.6 0.5463111 -0.7259988 1 1 1
v 0.35 0.08786798 -0.872132 1 1 1
v 0.5 0.15 -0.9198076 1 1 1
v 0.35 0.15 -0.9198076 1 1 1
v 0.35 0.512132 -0.4478679 1 1 1
v 0.35 0.01022226 -0.5823542 1 1 1
v 0.35 0 -0.66 1 1 1
v 0.5 0.01022226 -0.5823542 1 1 1
v 0.5 0 -0.66 1 1 1
v 0.35 0.6 -0.66 1 1 1
v 0.5 0.6 -0.66 1 1 1
v 0.35 0.5897778 -0.7376457 1 1 1
v 0.5 0.2223543 -0.9497777 1 1 1
v 0.35 0.2223543 -0.9497777 1 1 1
v 0.6 0.3 -0.405 1 1 1
v 0.35 0.0401924 -0.8099999 1 1 1
v 0.35 0.01022226 -0.7376457 1 1 1
v 0.5 0.01022226 -0.7376457 1 1 1
v 0.6 0.4275 -0.4391635 1 1 1
v 0.35 0.0401924 -0.51 1 1 1
v 0.6 0.555 -0.66 1 1 1
v 0.6 0.3659989 -0.4136889 1 1 1
v 0.35 0.45 -0.9198076 1 1 1
v 0.35 0.5598077 -0.51 1 1 1
v 0.35 0.3 -0.96 1 1 1
v 0.35 0.3776457 -0.9497777 1 1 1
v 0.6 0.05368893 -0.7259988 1 1 1
v 0.6 0.1725 -0.8808364 1 1 1
v 0.25 0.5463111 -0.7259988 1 1 1
v 0.25 0.5208365 -0.7875 1 1 1
v 0.6 0.05368893 -0.5940011 1 1 1
v 0.6 0.2340012 -0.906311 1 1 1
v 0.6 0.04500002 -0.66 1 1 1
v 0.35 0.5897778 -0.5823542 1 1 1
v 0.25 0.4803122 -0.4796878 1 1 1
v 0.25 0.5208365 -0.5325 1 1 1
v 0.25 0.07916354 -0.5325 1 1 1
v 0.25 0.05368893 -0.5940011 1 1 1
v 0.25 0.5463111 -0.5940011 1 1 1
v 0.25 0.555 -0.66 1 1 1
v 0.25 0.3659989 -0.906311 1 1 1
v 0.25 0.4275 -0.8808364 1 1 1
v 0.25 0.3 -0.405 1 1 1
v 0.25 0.3659989 -0.4136889 1 1 1
v 0.25 0.1725 -0.4391635 1 1 1
v 0.25 0.2340012 -0.4136889 1 1 1
v 0.25 0.4275 -0.4391635 1 1 1
v 0.25 0.1196878 -0.4796878 1 1 1
v 0.25 0.04500002 -0.66 1 1 1
v 0.25 0.4803122 -0.8403122 1 1 1
v 0.25 0.1196878 -0.8403122 1 1 1
v 0.25 0.1725 -0.8808364 1 1 1
v 0.25 0.2340012 -0.906311 1 1 1
v 0.25 0.3 -0.915 1 1 1
v 0.25 0.05368893 -0.7259988 1 1 1
v 0.25 0.07916354 -0.7875 1 1 1
v 0.6 0.3 -0.8413682 1 1 1
v 0.6 0.2530585 -0.8351882 1 1 1
v 0.6 0.3469416 -0.8351882 1 1 1
v 0.6 0.2093159 -0.8170694 1 1 1
v 0.6 0.1717533 -0.7882466 1 1 1
v 0.6 0.1429305 -0.7506841 1 1 1
v 0.6 0.1248118 -0.7069415 1 1 1
v 0.6 0.1186318 -0.66 1 1 1
v 0.6 0.3906841 -0.8170694 1 1 1
v 0.6 0.4282467 -0.7882466 1 1 1
v 0.6 0.4570695 -0.7506841 1 1 1
v 0.6 0.4751883 -0.7069415 1 1 1
v 0.6 0.1248118 -0.6130584 1 1 1
v 0.6 0.1429305 -0.5693159 1 1 1
v 0.6 0.1717533 -0.5317533 1 1 1
v 0.6 0.4813682 -0.66 1 1 1
v 0.6 0.4751883 -0.6130584 1 1 1
v 0.6 0.4570695 -0.5693159 1 1 1
v 0.6 0.4282467 -0.5317533 1 1 1
v 0.6 0.2093159 -0.5029305 1 1 1
v 0.6 0.2530585 -0.4848117 1 1 1
v 0.6 0.3906841 -0.5029305 1 1 1
v 0.6 0.3469416 -0.4848117 1 1 1
v 0.6 0.3 -0.4786318 1 1 1
v 0.6 0.3 -0.4786318 1 1 1
v 0.6 0.2530585 -0.4848117 1 1 1
v 0.6 0.3469416 -0.4848117 1 1 1
v 0.6 0.3906841 -0.5029305 1 1 1
v 0.6 0.2093159 -0.5029305 1 1 1
v 0.6 0.4282467 -0.5317533 1 1 1
v 0.6 0.1717533 -0.5317533 1 1 1
v 0.6 0.3 -0.539522 1 1 1
v 0.6 0.331182 -0.5436272 1 1 1
v 0.6 0.268818 -0.5436272 1 1 1
v 0.6 0.4570695 -0.5693159 1 1 1
v 0.6 0.360239 -0.555663 1 1 1
v 0.6 0.3851908 -0.5748092 1 1 1
v 0.6 0.1429305 -0.5693159 1 1 1
v 0.6 0.239761 -0.555663 1 1 1
v 0.6 0.2148092 -0.5748092 1 1 1
v 0.6 0.4751882 -0.6130584 1 1 1
v 0.6 0.404337 -0.599761 1 1 1
v 0.6 0.4163728 -0.628818 1 1 1
v 0.6 0.4813682 -0.66 1 1 1
v 0.6 0.420478 -0.66 1 1 1
v 0.6 0.1248118 -0.6130584 1 1 1
v 0.6 0.195663 -0.599761 1 1 1
v 0.6 0.1836272 -0.628818 1 1 1
v 0.6 0.4751882 -0.7069415 1 1 1
v 0.6 0.4163728 -0.691182 1 1 1
v 0.6 0.404337 -0.7202389 1 1 1
v 0.6 0.1186318 -0.66 1 1 1
v 0.6 0.179522 -0.66 1 1 1
v 0.6 0.1836272 -0.691182 1 1 1
v 0.6 0.1248118 -0.7069415 1 1 1
v 0.6 0.195663 -0.7202389 1 1 1
v 0.6 0.4570695 -0.7506841 1 1 1
v 0.6 0.3851908 -0.7451907 1 1 1
v 0.6 0.360239 -0.7643369 1 1 1
v 0.6 0.1429305 -0.7506841 1 1 1
v 0.6 0.2148092 -0.7451907 1 1 1
v 0.6 0.239761 -0.7643369 1 1 1
v 0.6 0.4282467 -0.7882466 1 1 1
v 0.6 0.1717533 -0.7882466 1 1 1
v 0.6 0.331182 -0.7763727 1 1 1
v 0.6 0.268818 -0.7763727 1 1 1
v 0.6 0.3 -0.7804779 1 1 1
v 0.6 0.3906841 -0.8170694 1 1 1
v 0.6 0.2093159 -0.8170694 1 1 1
v 0.6 0.3469416 -0.8351882 1 1 1
v 0.6 0.2530585 -0.8351882 1 1 1
v 0.6 0.3 -0.8413682 1 1 1
v 0.5500001 0.3872796 -0.6366135 1 1 1
v 0.5500001 0.3903585 -0.66 1 1 1
v 0.6000001 0.4163728 -0.628818 1 1 1
v 0.6000001 0.420478 -0.66 1 1 1
v 0.5500001 0.2127204 -0.6366135 1 1 1
v 0.5500001 0.2217473 -0.6148207 1 1 1
v 0.6000001 0.1836272 -0.628818 1 1 1
v 0.6000001 0.195663 -0.599761 1 1 1
v 0.5500001 0.2361069 -0.723893 1 1 1
v 0.5500001 0.2217473 -0.7051792 1 1 1
v 0.6000001 0.2148092 -0.7451907 1 1 1
v 0.6000001 0.195663 -0.7202389 1 1 1
v 0.6000001 0.268818 -0.5436272 1 1 1
v 0.5500001 0.2766135 -0.5727204 1 1 1
v 0.6000001 0.3 -0.539522 1 1 1
v 0.5500001 0.3 -0.5696415 1 1 1
v 0.5500001 0.2096415 -0.66 1 1 1
v 0.6000001 0.179522 -0.66 1 1 1
v 0.5500001 0.3233865 -0.7472795 1 1 1
v 0.6000001 0.331182 -0.7763727 1 1 1
v 0.5500001 0.3451793 -0.7382527 1 1 1
v 0.6000001 0.360239 -0.7643369 1 1 1
v 0.5500001 0.3233865 -0.5727204 1 1 1
v 0.6000001 0.331182 -0.5436272 1 1 1
v 0.5500001 0.2361069 -0.5961069 1 1 1
v 0.6000001 0.2148092 -0.5748092 1 1 1
v 0.5500001 0.3 -0.7503585 1 1 1
v 0.6000001 0.3 -0.7804779 1 1 1
v 0.5500001 0.2127204 -0.6833864 1 1 1
v 0.6000001 0.1836272 -0.691182 1 1 1
v 0.6000001 0.239761 -0.7643369 1 1 1
v 0.6000001 0.268818 -0.7763727 1 1 1
v 0.5500001 0.2548208 -0.7382527 1 1 1
v 0.5500001 0.2766135 -0.7472795 1 1 1
v 0.5500001 0.3638931 -0.5961069 1 1 1
v 0.5500001 0.3782527 -0.6148207 1 1 1
v 0.6000001 0.3851908 -0.5748092 1 1 1
v 0.6000001 0.404337 -0.599761 1 1 1
v 0.5500001 0.3638931 -0.723893 1 1 1
v 0.6000001 0.3851908 -0.7451907 1 1 1
v 0.6000001 0.239761 -0.555663 1 1 1
v 0.5500001 0.2548208 -0.5817472 1 1 1
v 0.5500001 0.3782527 -0.7051792 1 1 1
v 0.5500001 0.3872796 -0.6833864 1 1 1
v 0.5500001 0.3451793 -0.5817472 1 1 1
v 0.6000001 0.4163728 -0.691182 1 1 1
v 0.6000001 0.404337 -0.7202389 1 1 1
v 0.6000001 0.360239 -0.555663 1 1 1
vn 1 0 -6.661338E-16
vn 0.5160002 -0.8274009 -0.2217014
vn 0.5160002 -0.8565885 0
vn 0.5160002 0.8274009 -0.2217014
vn 0.5160002 0.7418273 -0.4282942
vn 0.5160002 0.6056995 0.6056995
vn 0.5160002 0.7418273 0.4282942
vn 0.5160002 0.2217014 -0.8274009
vn 0.5160002 0 -0.8565885
vn 0.5160002 0.8565885 0
vn 0.5160002 -0.2217014 0.8274009
vn 0.5160002 -0.4282942 0.7418273
vn 0.5160002 -0.2217014 -0.8274009
vn 0.5160002 0.6056995 -0.6056995
vn 0.5160002 0 0.8565885
vn 0.5160002 0.8274009 0.2217014
vn 0.5160002 0.4282942 0.7418273
vn 0.5160002 0.2217014 0.8274009
vn 0.5160002 -0.6056995 -0.6056995
vn 0.5160002 -0.7418273 -0.4282942
vn 0.5160002 -0.6056995 0.6056995
vn 0.5160002 0.4282942 -0.7418273
vn 0.5160002 -0.8274009 0.2217014
vn 0.5160002 -0.7418273 0.4282942
vn 0.5160002 -0.4282942 -0.7418273
v -0.35 0.5598077 -0.8099999 1 1 1
v -0.5 0.5598077 -0.8099999 1 1 1
v -0.35 0.512132 -0.872132 1 1 1
v -0.5 0.512132 -0.872132 1 1 1
v -0.6 0.3 -0.915 1 1 1
v -0.5 0.3 -0.96 1 1 1
v -0.6 0.3659989 -0.906311 1 1 1
v -0.5 0.3776457 -0.9497777 1 1 1
v -0.5 0.08786798 -0.4478679 1 1 1
v -0.6 0.1196878 -0.4796878 1 1 1
v -0.5 0.15 -0.4001924 1 1 1
v -0.6 0.1725 -0.4391635 1 1 1
v -0.6 0.4275 -0.8808364 1 1 1
v -0.5 0.45 -0.9198076 1 1 1
v -0.6 0.4803122 -0.8403122 1 1 1
v -0.35 0.08786798 -0.4478679 1 1 1
v -0.35 0.15 -0.4001924 1 1 1
v -0.35 0.2223543 -0.3702222 1 1 1
v -0.5 0.2223543 -0.3702222 1 1 1
v -0.35 0.3 -0.36 1 1 1
v -0.5 0.3 -0.36 1 1 1
v -0.6 0.5208365 -0.7875 1 1 1
v -0.5 0.0401924 -0.8099999 1 1 1
v -0.5 0.08786798 -0.872132 1 1 1
v -0.6 0.07916354 -0.7875 1 1 1
v -0.6 0.1196878 -0.8403122 1 1 1
v -0.5 0.0401924 -0.51 1 1 1
v -0.6 0.07916354 -0.5325 1 1 1
v -0.5 0.5598077 -0.51 1 1 1
v -0.6 0.5208365 -0.5325 1 1 1
v -0.5 0.5897778 -0.5823542 1 1 1
v -0.6 0.5463111 -0.5940011 1 1 1
v -0.5 0.512132 -0.4478679 1 1 1
v -0.6 0.4803122 -0.4796878 1 1 1
v -0.6 0.2340012 -0.4136889 1 1 1
v -0.35 0.3776457 -0.3702222 1 1 1
v -0.5 0.3776457 -0.3702222 1 1 1
v -0.35 0.45 -0.4001924 1 1 1
v -0.5 0.45 -0.4001924 1 1 1
v -0.5 0.5897778 -0.7376457 1 1 1
v -0.6 0.5463111 -0.7259988 1 1 1
v -0.35 0.08786798 -0.872132 1 1 1
v -0.5 0.15 -0.9198076 1 1 1
v -0.35 0.15 -0.9198076 1 1 1
v -0.35 0.512132 -0.4478679 1 1 1
v -0.35 0.01022226 -0.5823542 1 1 1
v -0.35 0 -0.66 1 1 1
v -0.5 0.01022226 -0.5823542 1 1 1
v -0.5 0 -0.66 1 1 1
v -0.35 0.6 -0.66 1 1 1
v -0.5 0.6 -0.66 1 1 1
v -0.35 0.5897778 -0.7376457 1 1 1
v -0.5 0.2223543 -0.9497777 1 1 1
v -0.35 0.2223543 -0.9497777 1 1 1
v -0.6 0.3 -0.405 1 1 1
v -0.35 0.0401924 -0.8099999 1 1 1
v -0.35 0.01022226 -0.7376457 1 1 1
v -0.5 0.01022226 -0.7376457 1 1 1
v -0.6 0.4275 -0.4391635 1 1 1
v -0.35 0.0401924 -0.51 1 1 1
v -0.6 0.555 -0.66 1 1 1
v -0.6 0.3659989 -0.4136889 1 1 1
v -0.35 0.45 -0.9198076 1 1 1
v -0.35 0.5598077 -0.51 1 1 1
v -0.35 0.3 -0.96 1 1 1
v -0.35 0.3776457 -0.9497777 1 1 1
v -0.6 0.05368893 -0.7259988 1 1 1
v -0.6 0.1725 -0.8808364 1 1 1
v -0.25 0.5463111 -0.7259988 1 1 1
v -0.25 0.5208365 -0.7875 1 1 1
v -0.6 0.05368893 -0.5940011 1 1 1
v -0.6 0.2340012 -0.906311 1 1 1
v -0.6 0.04500002 -0.66 1 1 1
v -0.35 0.5897778 -0.5823542 1 1 1
v -0.25 0.4803122 -0.4796878 1 1 1
v -0.25 0.5208365 -0.5325 1 1 1
v -0.25 0.07916354 -0.5325 1 1 1
v -0.25 0.05368893 -0.5940011 1 1 1
v -0.25 0.5463111 -0.5940011 1 1 1
v -0.25 0.555 -0.66 1 1 1
v -0.25 0.3659989 -0.906311 1 1 1
v -0.25 0.4275 -0.8808364 1 1 1
v -0.25 0.3 -0.405 1 1 1
v -0.25 0.3659989 -0.4136889 1 1 1
v -0.25 0.1725 -0.4391635 1 1 1
v -0.25 0.2340012 -0.4136889 1 1 1
v -0.25 0.4275 -0.4391635 1 1 1
v -0.25 0.1196878 -0.4796878 1 1 1
v -0.25 0.04500002 -0.66 1 1 1
v -0.25 0.4803122 -0.8403122 1 1 1
v -0.25 0.1196878 -0.8403122 1 1 1
v -0.25 0.1725 -0.8808364 1 1 1
v -0.25 0.2340012 -0.906311 1 1 1
v -0.25 0.3 -0.915 1 1 1
v -0.25 0.05368893 -0.7259988 1 1 1
v -0.25 0.07916354 -0.7875 1 1 1
v -0.6 0.3 -0.8413682 1 1 1
v -0.6 0.2530585 -0.8351882 1 1 1
v -0.6 0.3469416 -0.8351882 1 1 1
v -0.6 0.2093159 -0.8170694 1 1 1
v -0.6 0.1717533 -0.7882466 1 1 1
v -0.6 0.1429305 -0.7506841 1 1 1
v -0.6 0.1248118 -0.7069415 1 1 1
v -0.6 0.1186318 -0.66 1 1 1
v -0.6 0.3906841 -0.8170694 1 1 1
v -0.6 0.4282467 -0.7882466 1 1 1
v -0.6 0.4570695 -0.7506841 1 1 1
v -0.6 0.4751883 -0.7069415 1 1 1
v -0.6 0.1248118 -0.6130584 1 1 1
v -0.6 0.1429305 -0.5693159 1 1 1
v -0.6 0.1717533 -0.5317533 1 1 1
v -0.6 0.4813682 -0.66 1 1 1
v -0.6 0.4751883 -0.6130584 1 1 1
v -0.6 0.4570695 -0.5693159 1 1 1
v -0.6 0.4282467 -0.5317533 1 1 1
v -0.6 0.2093159 -0.5029305 1 1 1
v -0.6 0.2530585 -0.4848117 1 1 1
v -0.6 0.3906841 -0.5029305 1 1 1
v -0.6 0.3469416 -0.4848117 1 1 1
v -0.6 0.3 -0.4786318 1 1 1
v -0.6 0.3 -0.4786318 1 1 1
v -0.6 0.2530585 -0.4848117 1 1 1
v -0.6 0.3469416 -0.4848117 1 1 1
v -0.6 0.3906841 -0.5029305 1 1 1
v -0.6 0.2093159 -0.5029305 1 1 1
v -0.6 0.4282467 -0.5317533 1 1 1
v -0.6 0.1717533 -0.5317533 1 1 1
v -0.6 0.3 -0.539522 1 1 1
v -0.6 0.331182 -0.5436272 1 1 1
v -0.6 0.268818 -0.5436272 1 1 1
v -0.6 0.4570695 -0.5693159 1 1 1
v -0.6 0.360239 -0.555663 1 1 1
v -0.6 0.3851908 -0.5748092 1 1 1
v -0.6 0.1429305 -0.5693159 1 1 1
v -0.6 0.239761 -0.555663 1 1 1
v -0.6 0.2148092 -0.5748092 1 1 1
v -0.6 0.4751882 -0.6130584 1 1 1
v -0.6 0.404337 -0.599761 1 1 1
v -0.6 0.4163728 -0.628818 1 1 1
v -0.6 0.4813682 -0.66 1 1 1
v -0.6 0.420478 -0.66 1 1 1
v -0.6 0.1248118 -0.6130584 1 1 1
v -0.6 0.195663 -0.599761 1 1 1
v -0.6 0.1836272 -0.628818 1 1 1
v -0.6 0.4751882 -0.7069415 1 1 1
v -0.6 0.4163728 -0.691182 1 1 1
v -0.6 0.404337 -0.7202389 1 1 1
v -0.6 0.1186318 -0.66 1 1 1
v -0.6 0.179522 -0.66 1 1 1
v -0.6 0.1836272 -0.691182 1 1 1
v -0.6 0.1248118 -0.7069415 1 1 1
v -0.6 0.195663 -0.7202389 1 1 1
v -0.6 0.4570695 -0.7506841 1 1 1
v -0.6 0.3851908 -0.7451907 1 1 1
v -0.6 0.360239 -0.7643369 1 1 1
v -0.6 0.1429305 -0.7506841 1 1 1
v -0.6 0.2148092 -0.7451907 1 1 1
v -0.6 0.239761 -0.7643369 1 1 1
v -0.6 0.4282467 -0.7882466 1 1 1
v -0.6 0.1717533 -0.7882466 1 1 1
v -0.6 0.331182 -0.7763727 1 1 1
v -0.6 0.268818 -0.7763727 1 1 1
v -0.6 0.3 -0.7804779 1 1 1
v -0.6 0.3906841 -0.8170694 1 1 1
v -0.6 0.2093159 -0.8170694 1 1 1
v -0.6 0.3469416 -0.8351882 1 1 1
v -0.6 0.2530585 -0.8351882 1 1 1
v -0.6 0.3 -0.8413682 1 1 1
v -0.5500001 0.3872796 -0.6366135 1 1 1
v -0.5500001 0.3903585 -0.66 1 1 1
v -0.6000001 0.4163728 -0.628818 1 1 1
v -0.6000001 0.420478 -0.66 1 1 1
v -0.5500001 0.2127204 -0.6366135 1 1 1
v -0.5500001 0.2217473 -0.6148207 1 1 1
v -0.6000001 0.1836272 -0.628818 1 1 1
v -0.6000001 0.195663 -0.599761 1 1 1
v -0.5500001 0.2361069 -0.723893 1 1 1
v -0.5500001 0.2217473 -0.7051792 1 1 1
v -0.6000001 0.2148092 -0.7451907 1 1 1
v -0.6000001 0.195663 -0.7202389 1 1 1
v -0.6000001 0.268818 -0.5436272 1 1 1
v -0.5500001 0.2766135 -0.5727204 1 1 1
v -0.6000001 0.3 -0.539522 1 1 1
v -0.5500001 0.3 -0.5696415 1 1 1
v -0.5500001 0.2096415 -0.66 1 1 1
v -0.6000001 0.179522 -0.66 1 1 1
v -0.5500001 0.3233865 -0.7472795 1 1 1
v -0.6000001 0.331182 -0.7763727 1 1 1
v -0.5500001 0.3451793 -0.7382527 1 1 1
v -0.6000001 0.360239 -0.7643369 1 1 1
v -0.5500001 0.3233865 -0.5727204 1 1 1
v -0.6000001 0.331182 -0.5436272 1 1 1
v -0.5500001 0.2361069 -0.5961069 1 1 1
v -0.6000001 0.2148092 -0.5748092 1 1 1
v -0.5500001 0.3 -0.7503585 1 1 1
v -0.6000001 0.3 -0.7804779 1 1 1
v -0.5500001 0.2127204 -0.6833864 1 1 1
v -0.6000001 0.1836272 -0.691182 1 1 1
v -0.6000001 0.239761 -0.7643369 1 1 1
v -0.6000001 0.268818 -0.7763727 1 1 1
v -0.5500001 0.2548208 -0.7382527 1 1 1
v -0.5500001 0.2766135 -0.7472795 1 1 1
v -0.5500001 0.3638931 -0.5961069 1 1 1
v -0.5500001 0.3782527 -0.6148207 1 1 1
v -0.6000001 0.3851908 -0.5748092 1 1 1
v -0.6000001 0.404337 -0.599761 1 1 1
v -0.5500001 0.3638931 -0.723893 1 1 1
v -0.6000001 0.3851908 -0.7451907 1 1 1
v -0.6000001 0.239761 -0.555663 1 1 1
v -0.5500001 0.2548208 -0.5817472 1 1 1
v -0.5500001 0.3782527 -0.7051792 1 1 1
v -0.5500001 0.3872796 -0.6833864 1 1 1
v -0.5500001 0.3451793 -0.5817472 1 1 1
v -0.6000001 0.4163728 -0.691182 1 1 1
v -0.6000001 0.404337 -0.7202389 1 1 1
v -0.6000001 0.360239 -0.555663 1 1 1
v 0.35 0.5598077 0.51 1 1 1
v 0.5 0.5598077 0.51 1 1 1
v 0.35 0.512132 0.4478679 1 1 1
v 0.5 0.512132 0.4478679 1 1 1
v 0.6 0.3 0.405 1 1 1
v 0.5 0.3 0.36 1 1 1
v 0.6 0.3659989 0.4136889 1 1 1
v 0.5 0.3776457 0.3702222 1 1 1
v 0.5 0.08786798 0.872132 1 1 1
v 0.6 0.1196878 0.8403122 1 1 1
v 0.5 0.15 0.9198076 1 1 1
v 0.6 0.1725 0.8808364 1 1 1
v 0.6 0.4275 0.4391635 1 1 1
v 0.5 0.45 0.4001924 1 1 1
v 0.6 0.4803122 0.4796878 1 1 1
v 0.35 0.08786798 0.872132 1 1 1
v 0.35 0.15 0.9198076 1 1 1
v 0.35 0.2223543 0.9497777 1 1 1
v 0.5 0.2223543 0.9497777 1 1 1
v 0.35 0.3 0.96 1 1 1
v 0.5 0.3 0.96 1 1 1
v 0.6 0.5208365 0.5325 1 1 1
v 0.5 0.0401924 0.51 1 1 1
v 0.5 0.08786798 0.4478679 1 1 1
v 0.6 0.07916354 0.5325 1 1 1
v 0.6 0.1196878 0.4796878 1 1 1
v 0.5 0.0401924 0.8099999 1 1 1
v 0.6 0.07916354 0.7875 1 1 1
v 0.5 0.5598077 0.8099999 1 1 1
v 0.6 0.5208365 0.7875 1 1 1
v 0.5 0.5897778 0.7376457 1 1 1
v 0.6 0.5463111 0.7259988 1 1 1
v 0.5 0.512132 0.872132 1 1 1
v 0.6 0.4803122 0.8403122 1 1 1
v 0.6 0.2340012 0.906311 1 1 1
v 0.35 0.3776457 0.9497777 1 1 1
v 0.5 0.3776457 0.9497777 1 1 1
v 0.35 0.45 0.9198076 1 1 1
v 0.5 0.45 0.9198076 1 1 1
v 0.5 0.5897778 0.5823542 1 1 1
v 0.6 0.5463111 0.5940011 1 1 1
v 0.35 0.08786798 0.4478679 1 1 1
v 0.5 0.15 0.4001924 1 1 1
v 0.35 0.15 0.4001924 1 1 1
v 0.35 0.512132 0.872132 1 1 1
v 0.35 0.01022226 0.7376457 1 1 1
v 0.35 0 0.66 1 1 1
v 0.5 0.01022226 0.7376457 1 1 1
v 0.5 0 0.66 1 1 1
v 0.35 0.6 0.66 1 1 1
v 0.5 0.6 0.66 1 1 1
v 0.35 0.5897778 0.5823542 1 1 1
v 0.5 0.2223543 0.3702222 1 1 1
v 0.35 0.2223543 0.3702222 1 1 1
v 0.6 0.3 0.915 1 1 1
v 0.35 0.0401924 0.51 1 1 1
v 0.35 0.01022226 0.5823542 1 1 1
v 0.5 0.01022226 0.5823542 1 1 1
v 0.6 0.4275 0.8808364 1 1 1
v 0.35 0.0401924 0.8099999 1 1 1
v 0.6 0.555 0.66 1 1 1
v 0.6 0.3659989 0.906311 1 1 1
v 0.35 0.45 0.4001924 1 1 1
v 0.35 0.5598077 0.8099999 1 1 1
v 0.35 0.3 0.36 1 1 1
v 0.35 0.3776457 0.3702222 1 1 1
v 0.6 0.05368893 0.5940011 1 1 1
v 0.6 0.1725 0.4391635 1 1 1
v 0.25 0.5463111 0.5940011 1 1 1
v 0.25 0.5208365 0.5325 1 1 1
v 0.6 0.05368893 0.7259988 1 1 1
v 0.6 0.2340012 0.4136889 1 1 1
v 0.6 0.04500002 0.66 1 1 1
v 0.35 0.5897778 0.7376457 1 1 1
v 0.25 0.4803122 0.8403122 1 1 1
v 0.25 0.5208365 0.7875 1 1 1
v 0.25 0.07916354 0.7875 1 1 1
v 0.25 0.05368893 0.7259988 1 1 1
v 0.25 0.5463111 0.7259988 1 1 1
v 0.25 0.555 0.66 1 1 1
v 0.25 0.3659989 0.4136889 1 1 1
v 0.25 0.4275 0.4391635 1 1 1
v 0.25 0.3 0.915 1 1 1
v 0.25 0.3659989 0.906311 1 1 1
v 0.25 0.1725 0.8808364 1 1 1
v 0.25 0.2340012 0.906311 1 1 1
v 0.25 0.4275 0.8808364 1 1 1
v 0.25 0.1196878 0.8403122 1 1 1
v 0.25 0.04500002 0.66 1 1 1
v 0.25 0.4803122 0.4796878 1 1 1
v 0.25 0.1196878 0.4796878 1 1 1
v 0.25 0.1725 0.4391635 1 1 1
v 0.25 0.2340012 0.4136889 1 1 1
v 0.25 0.3 0.405 1 1 1
v 0.25 0.05368893 0.5940011 1 1 1
v 0.25 0.07916354 0.5325 1 1 1
v 0.6 0.3 0.4786318 1 1 1
v 0.6 0.2530585 0.4848117 1 1 1
v 0.6 0.3469416 0.4848117 1 1 1
v 0.6 0.2093159 0.5029305 1 1 1
v 0.6 0.1717533 0.5317533 1 1 1
v 0.6 0.1429305 0.5693159 1 1 1
v 0.6 0.1248118 0.6130584 1 1 1
v 0.6 0.1186318 0.66 1 1 1
v 0.6 0.3906841 0.5029305 1 1 1
v 0.6 0.4282467 0.5317533 1 1 1
v 0.6 0.4570695 0.5693159 1 1 1
v 0.6 0.4751883 0.6130584 1 1 1
v 0.6 0.1248118 0.7069415 1 1 1
v 0.6 0.1429305 0.7506841 1 1 1
v 0.6 0.1717533 0.7882466 1 1 1
v 0.6 0.4813682 0.66 1 1 1
v 0.6 0.4751883 0.7069415 1 1 1
v 0.6 0.4570695 0.7506841 1 1 1
v 0.6 0.4282467 0.7882466 1 1 1
v 0.6 0.2093159 0.8170694 1 1 1
v 0.6 0.2530585 0.8351882 1 1 1
v 0.6 0.3906841 0.8170694 1 1 1
v 0.6 0.3469416 0.8351882 1 1 1
v 0.6 0.3 0.8413682 1 1 1
v 0.6 0.3 0.8413682 1 1 1
v 0.6 0.2530585 0.8351882 1 1 1
v 0.6 0.3469416 0.8351882 1 1 1
v 0.6 0.3906841 0.8170694 1 1 1
v 0.6 0.2093159 0.8170694 1 1 1
v 0.6 0.4282467 0.7882466 1 1 1
v 0.6 0.1717533 0.7882466 1 1 1
v 0.6 0.3 0.7804779 1 1 1
v 0.6 0.331182 0.7763727 1 1 1
v 0.6 0.268818 0.7763727 1 1 1
v 0.6 0.4570695 0.7506841 1 1 1
v 0.6 0.360239 0.7643369 1 1 1
v 0.6 0.3851908 0.7451907 1 1 1
v 0.6 0.1429305 0.7506841 1 1 1
v 0.6 0.239761 0.7643369 1 1 1
v 0.6 0.2148092 0.7451907 1 1 1
v 0.6 0.4751882 0.7069415 1 1 1
v 0.6 0.404337 0.7202389 1 1 1
v 0.6 0.4163728 0.691182 1 1 1
v 0.6 0.4813682 0.66 1 1 1
v 0.6 0.420478 0.66 1 1 1
v 0.6 0.1248118 0.7069415 1 1 1
v 0.6 0.195663 0.7202389 1 1 1
v 0.6 0.1836272 0.691182 1 1 1
v 0.6 0.4751882 0.6130584 1 1 1
v 0.6 0.4163728 0.628818 1 1 1
v 0.6 0.404337 0.599761 1 1 1
v 0.6 0.1186318 0.66 1 1 1
v 0.6 0.179522 0.66 1 1 1
v 0.6 0.1836272 0.628818 1 1 1
v 0.6 0.1248118 0.6130584 1 1 1
v 0.6 0.195663 0.599761 1 1 1
v 0.6 0.4570695 0.5693159 1 1 1
v 0.6 0.3851908 0.5748092 1 1 1
v 0.6 0.360239 0.555663 1 1 1
v 0.6 0.1429305 0.5693159 1 1 1
v 0.6 0.2148092 0.5748092 1 1 1
v 0.6 0.239761 0.555663 1 1 1
v 0.6 0.4282467 0.5317533 1 1 1
v 0.6 0.1717533 0.5317533 1 1 1
v 0.6 0.331182 0.5436272 1 1 1
v 0.6 0.268818 0.5436272 1 1 1
v 0.6 0.3 0.539522 1 1 1
v 0.6 0.3906841 0.5029305 1 1 1
v 0.6 0.2093159 0.5029305 1 1 1
v 0.6 0.3469416 0.4848117 1 1 1
v 0.6 0.2530585 0.4848117 1 1 1
v 0.6 0.3 0.4786318 1 1 1
v 0.5500001 0.3872796 0.6833864 1 1 1
v 0.5500001 0.3903585 0.66 1 1 1
v 0.6000001 0.4163728 0.691182 1 1 1
v 0.6000001 0.420478 0.66 1 1 1
v 0.5500001 0.2127204 0.6833864 1 1 1
v 0.5500001 0.2217473 0.7051792 1 1 1
v 0.6000001 0.1836272 0.691182 1 1 1
v 0.6000001 0.195663 0.7202389 1 1 1
v 0.5500001 0.2361069 0.5961069 1 1 1
v 0.5500001 0.2217473 0.6148207 1 1 1
v 0.6000001 0.2148092 0.5748092 1 1 1
v 0.6000001 0.195663 0.599761 1 1 1
v 0.6000001 0.268818 0.7763727 1 1 1
v 0.5500001 0.2766135 0.7472795 1 1 1
v 0.6000001 0.3 0.7804779 1 1 1
v 0.5500001 0.3 0.7503585 1 1 1
v 0.5500001 0.2096415 0.66 1 1 1
v 0.6000001 0.179522 0.66 1 1 1
v 0.5500001 0.3233865 0.5727204 1 1 1
v 0.6000001 0.331182 0.5436272 1 1 1
v 0.5500001 0.3451793 0.5817472 1 1 1
v 0.6000001 0.360239 0.555663 1 1 1
v 0.5500001 0.3233865 0.7472795 1 1 1
v 0.6000001 0.331182 0.7763727 1 1 1
v 0.5500001 0.2361069 0.723893 1 1 1
v 0.6000001 0.2148092 0.7451907 1 1 1
v 0.5500001 0.3 0.5696415 1 1 1
v 0.6000001 0.3 0.539522 1 1 1
v 0.5500001 0.2127204 0.6366135 1 1 1
v 0.6000001 0.1836272 0.628818 1 1 1
v 0.6000001 0.239761 0.555663 1 1 1
v 0.6000001 0.268818 0.5436272 1 1 1
v 0.5500001 0.2548208 0.5817472 1 1 1
v 0.5500001 0.2766135 0.5727204 1 1 1
v 0.5500001 0.3638931 0.723893 1 1 1
v 0.5500001 0.3782527 0.7051792 1 1 1
v 0.6000001 0.3851908 0.7451907 1 1 1
v 0.6000001 0.404337 0.7202389 1 1 1
v 0.5500001 0.3638931 0.5961069 1 1 1
v 0.6000001 0.3851908 0.5748092 1 1 1
v 0.6000001 0.239761 0.7643369 1 1 1
v 0.5500001 0.2548208 0.7382527 1 1 1
v 0.5500001 0.3782527 0.6148207 1 1 1
v 0.5500001 0.3872796 0.6366135 1 1 1
v 0.5500001 0.3451793 0.7382527 1 1 1
v 0.6000001 0.4163728 0.628818 1 1 1
v 0.6000001 0.404337 0.599761 1 1 1
v 0.6000001 0.360239 0.7643369 1 1 1
